/* XPM */
static char *de3315787c174a49bceaaaeb128ba48fUh37lf6LFT0wZh5E[] = {
/* columns rows colors chars-per-pixel */
"64 64 159 2 ",
"   c #0D0907",
".  c #0F0B09",
"X  c #120A07",
"o  c #140C0A",
"O  c #16100E",
"+  c #1C120E",
"@  c #1D1411",
"#  c #23140F",
"$  c #241611",
"%  c #291711",
"&  c #251813",
"*  c #2B1914",
"=  c #321D16",
"-  c #331F18",
";  c #2D221E",
":  c #34221C",
">  c #3A251E",
",  c #362621",
"<  c #3A2721",
"1  c #3C2A24",
"2  c #3C2D29",
"3  c #3F312C",
"4  c #46281E",
"5  c #4A291F",
"6  c #442D24",
"7  c #4B2E24",
"8  c #452F28",
"9  c #512F23",
"0  c #4C3027",
"q  c #46312A",
"w  c #4C342B",
"e  c #4E382F",
"r  c #543226",
"t  c #5A3427",
"y  c #54352B",
"u  c #5B362A",
"i  c #55382F",
"p  c #5C392E",
"a  c #4C3730",
"s  c #4E3932",
"d  c #543B32",
"f  c #5C3D32",
"g  c #623729",
"h  c #633B2E",
"j  c #6A3D2E",
"k  c #723F2D",
"l  c #633E31",
"z  c #6A3F31",
"x  c #5D4036",
"c  c #554039",
"v  c #5D4239",
"b  c #72402F",
"n  c #644135",
"m  c #6C4234",
"M  c #644439",
"N  c #6B4639",
"B  c #64493F",
"V  c #6D493C",
"C  c #714435",
"Z  c #724435",
"A  c #704436",
"S  c #714537",
"D  c #724436",
"F  c #724536",
"G  c #734536",
"H  c #724537",
"J  c #734637",
"K  c #744434",
"L  c #754434",
"P  c #754535",
"I  c #764535",
"U  c #744537",
"Y  c #754636",
"T  c #744637",
"R  c #734435",
"E  c #784533",
"W  c #7D4633",
"Q  c #784534",
"!  c #794535",
"~  c #794634",
"^  c #7A4634",
"/  c #794636",
"(  c #784736",
")  c #794736",
"_  c #7A4736",
"`  c #7A4635",
"'  c #7B4836",
"]  c #7B4837",
"[  c #7F4836",
"{  c #7E4837",
"}  c #7E4937",
"|  c #7F4937",
" . c #7C4837",
".. c #714738",
"X. c #704739",
"o. c #764738",
"O. c #774738",
"+. c #734738",
"@. c #784738",
"#. c #714839",
"$. c #70483A",
"%. c #72483A",
"&. c #73483A",
"*. c #72493B",
"=. c #754839",
"-. c #764838",
";. c #74483A",
":. c #75493B",
">. c #77493A",
",. c #744A3B",
"<. c #74493A",
"1. c #784839",
"2. c #7A4838",
"3. c #794A3B",
"4. c #7A4B3B",
"5. c #7D4838",
"6. c #7F4938",
"7. c #7E4A39",
"8. c #7C4A3A",
"9. c #794B3C",
"0. c #7B4D3D",
"q. c #7C4D3D",
"w. c #7F4D3D",
"e. c #7C4A3A",
"r. c #734D41",
"t. c #784F40",
"y. c #7F5141",
"u. c #814734",
"i. c #824936",
"p. c #834936",
"a. c #844A37",
"s. c #834A37",
"d. c #814A38",
"f. c #844C39",
"g. c #864C39",
"h. c #854D3B",
"j. c #824E3C",
"k. c #834C3A",
"l. c #884F3C",
"z. c #894E3B",
"x. c #86503E",
"c. c #89503D",
"v. c #88503E",
"b. c #8B513F",
"n. c #8C503C",
"m. c #8D533F",
"M. c #8B513E",
"N. c #93523D",
"B. c #93533D",
"V. c #99553E",
"C. c #815141",
"Z. c #875443",
"A. c #835242",
"S. c #8C5441",
"D. c #8D5946",
"F. c #925641",
"G. c #965946",
"H. c #9E5942",
"J. c #985B47",
/* pixels */
"> y h r 4 t t k W m t y p y y t h z t y w y w p z y p y y p m * > n y w 8 1 1 1 8 y y w p y y h h u h t p y u j u g K u j h m > ",
"y N ) b.a.i.} N.H.b.4...N N n m 5.o.>.>.N N n N q.l h m >.D q.& u &.n f i f w i p &.l l l p n N ..U U ) z ] ) ) } i.m.K E z.Z.* ",
"8 l m l D m.b.) h.5.z l n n l y p m D &.N i y p t h m D l h 4.& y m m p d i f l m l l l y z 0.n ..m j } ) ) ] z K ) ] g } b.4.& ",
"8 l n h l >.m K h.U h l N p y t h D j.y.f f p p p m o.l p D D $ y 4.m p p i f l m D m D q.C.V M n n >.q.4.h 5.K E U m h.z.U 4.& ",
"7 m l l l D p K m.j m m m p m U 5.4.&.v i f p u u t h K o.z N $ 0 l >.p h l l h z U D U N &.n d f w y v f p p m ) D 4.} d.U U & ",
"p ..n p C &.>.Z.N m D m l l m 4.4.N f y 6 6 u E E i.i.] C h D $ y q.&.p 4.>.p h m 4.z ) N N M d f y q w e 0 l m q.0.m ] } E m * ",
"h m h U j...M d q i m M m m ..N n l l y r g ) ) d.z.a.b.U D m & y >.f h 4.h u ) 4.m U d.U N d 2 2 8 w d y n ,.N v i l p K ) 5.= ",
"y w.z 4.4.0.p y d f t.M n n 0.N p l p z U U K ] } ) } d.z U C & t 9.l p h g ) h.U m ] 5.N n 7 6 y p y n p p f i i f n p ) 5.j.* ",
"p >.U ] h...N M f M v d f f m N p t m D h U d.U U k.) 4.U U m # j U 7 p p K B.5.m U U 5...n 0 K k.5.m f d l m m f i p z U k.j.* ",
"y p p 4.>...,.d d q w f f i f f y n m D m 5.4...U ) U o.m ) U & h w.y l D ) ) U h ) m l l l z U j.&.n d n f m m f n p D 4.h.q.- ",
"w n m D m N n d f f f f f t p l l l h N N l l m h 5.U w.C K ) % t m l y h d.K C m } U 4.m h z m K l y l y l l >.&.m l h 4.4.n & ",
"y f z C m l l M v n f f f m 4.>.>.m N ..m l m m m 5.U m z } U & u 4.p m } 5.m } ) ) k.4.m h h K K U z h l U o.N n o.l D U m y @ ",
"y f h ..l ..n d d M d l n m D m m l N l n m l m 5.U D m U h.q.% y N l l ) D m ) U 5.4.u z h h j i.) E  .] 5.4.M n t 4.D z m m & ",
"7 p l m N N f f N f d n n l l m D m l N ..l D 4.D K ) z U q.M + 1 M n h x.w.p h d.>.l m h.m h i.m.K i.d.5.4.>.n f y 4.m m U m & ",
"t x.4.m ..f f f f n d l l l p m >.m N m N o.m m m D j.S.A.V d + w V w n >.m h 5.4.>.U 5.b.D C k.5.K  .z.k.4.n n f n m m D K ) * ",
"* $ + % $ + + $ $ $ @ + $ $ $ % & # & # $ & + + $ $ & $ $ @ +   @ @ + + $ $ & % + & & & $ # & & * # # % % & & $ & @ @ $ $ # & X ",
"t t h p y 0 w w 8 0 6 8 8 0 t & 5 m y y h y y 7 0 y y 6 1 < w w 8 6 6 w 6 0 8 0 u y 7 0 y 7 7 & - h h j p y 7 w w 6 1 6 8 r t u ",
"k.} F.N 0.N n n n V M N f m ) % K J.9...4.>.&.N >.m &.n f v v v v M v M M N m m 4.o.m m >.h ) & j F.Z.Z.N N n f f n l N N m m ) ",
") ) 4.&.V d i n n f y i f l K # j j.m h o.m n f y n p l f f f d w v d i f l p D D l D N l h z.& h N f d i l h p l m m l y l l K ",
"x.h.>.r.f w i N f y y n m m U % g S.m m D m n p m u t l n M v n n f d f y p p m m N M p 7 j 5.% r m n v d t z u l N ..m m &.m w.",
"m >.&.f q y f l n m f d d y j % u x.n m m m z D l j z t m n n p n f d d p h m U l y t h j } m % r q.N f 8 h ) E z.4.l m p D l N ",
"..,.d d d i y l n N M f i p K % 9 b.l >.N N 4.4.m D g m z m f l d f n n f z E ) h h g.b.] 5.m # p C.N v p m U ) ) >.l m m m h m ",
"&.f d d y f f n N ,.N f w y j # j S.n m l N N l h p p K ) 5.&.p y y d f y l K K j h.h.) m K D & y N m n y D D m 5.4.m m M f N 9.",
"f f d i d f f N M v d d 6 t j # t 5.l m m l p t u u m K ) l p p p m h l p h j u.z.m.K K j K m & 0 N n i f m U K d.D n m N N n f ",
"M f d v d f f M f y n p y h K % 7 k.p l m l h U z ) U  .) l z D m m z C m y C N.N.h.j 5.D 4.>.& 6 N l y n n m m U 4.m D >.M f f ",
"M d M f d v d f v f M N ..j.j # j h.z N l m l K ) k.U } w.m o.h h z K h m y l o.m l h l m N n $ 1 d p p n n m j  .D ..o.o.l d f ",
"f i f e d M s d f f N N N n p * z F.U n p t j 5.K K j C U m h h U U h m z g K t u h h m ..N f $ 6 N p n N N p j i.h.>.o.n M f f ",
"f p v d d M d d M v n v e i M $ w 0.l m h h d.) z d.m l z p z U 4.D m U K i.) b W E E m m p N $ 6 f f M i l h K E k.o.m N n f f ",
"p n v d v c d v d f f d a y M + w N p m h  .} 5.E D N D h U k.m K 4.m D K E i.E  . .a.U m m n @ 8 M i f n l u  .N.b.4.4.>.M n d ",
"N B d v d d s a s v d s d d n @ 0 n n l j ) d.4.l h l u m U ) U h.) m m h K K K j ) ) K h m m $ 0 ,.v d f p z h.a.5.U N l l n p ",
"M d d M v d d d a s s c d d M @ 6 n h m K ) b.z l l h j U m k.m U D m m ] } h.a.K d.U ) 4.5.N $ w M q w p r h j E h.4.l M V n v ",
"@ + @ @ $ O @ @ O O O @ O + $   + @ + % & # # + & $ + # % & & % % $ $ % & * * * * * & & & $ $   @ X X o & # + + # % & + $ @ O & ",
", e 1 ; , 1 , < 1 2 3 2 1 8 8 q q 7 y 7 u y t t r 7 t j h r h * : p t t h g r t t 0 r 7 r t 6 6 r 7 t u t 9 j k j t r 7 7 0 6 @ ",
"w v e e d B w f M B v c c M B M M M n h N.h.U 5.5.m U b.5.5.S.& p C.D x.x.h.4.k.j.>.D m U 4.U 4.U C m K  .N.V.V.z.h.b...>...N $ ",
"< n f 8 q d e v M v d w a e y i w w r h k.>.m m >.N D z K U >.& 7 >.m z h C l z @.m h j m z o.n l z h a.u.N.a.m.d.} 4.m p p ..* ",
"7 M w p p f f d d d s d e d y p u m y j z.m l n ..m C 4.] 4.N # t 5.z U k.U l h 5.m p j d.m m D m K d.E W m.x.4.l l m m t N n $ ",
"6 m f l m >.f d d e w d d i y h a.z p K z.U o.m 4.l 5.k.U 4.l # h 4.m D m 4.l m N p p } } K  .5.p z U C d.5.m p C D D 4.o.j.n $ ",
"h >.N n N n M M c w d i p u h d.K U m K 5.4.>.>...D U K K z h % y >.l U 4.4.m 0.n m m 5.m K } h m E K D >.l l N m U q.&.n p h % ",
"y >.M f M f v s q f f i p h m m D U m 4.j.U 4...N l m d.4.C z & t 4.n U 5...n D n l l C j j W z.d.K E o.p C m U >.m q.m l f l * ",
"p ,.v d f v d s e e w y i l ) q.m D m K U U 4.N p l U ) ) U 4.& p q.l l o.M i n 9.n l m K E E  .j K 5.m h >.l D 4.N m n n f p * ",
"y M d w d d d e e w i f p h 4.N p z K } ) U U m h l D m ) h.q.$ y &.l l ..l f f d p h C m  .j K E n.U N l N l z U D m M n f n * ",
"w v w w N d d w e w i n l z m m l K C 4.U K j 4.m m K ) U >.m $ 7 M &.w f f f n f l p U ) h.E a.} ) m p m m h K U K U ..f v f & ",
"w v 8 p V d f l l M f f f z D m h 5.4.4.m }  .5.U U } 4.>.n m & 8 N n w i n M N f i y E m b z.z.E D m D o.p m k.D j 5...n M v @ ",
"6 f y f n d p n N f f f n m l l m m 4.5.m h.m.w.l ) S.n N n f @ 1 f w y l l n M y l n m j ) m.} ) @.D >.l K C D m K 5.D N n d @ ",
"q M y y n y m n n M M f i y m U z m 5.z m ) 5.l u j.,.f d l f @ > f y m &.f y n d y p h j } U K 5.4.m >.p m >.m K d.j.D n N v $ ",
"d M i n l p N n m M v i w h z C m U z K ) 5.m l D m N n d f M + p N l z U n m l 6 r h h m ) 5.o.U h ] m m m m C E 5.j.n l M d + ",
"e B d l n n m N n M d d f D ] 4.j C ) i.E 5.m &.N N M n f f n + y N n h C m m m m h E ) K ) z l D D D z 4.l t z ) i.4.m l f e $ ",
"& $ O + $ $ $ + $ $ + + @ + & * % % # # # % * + + $ $ $ + @ @ . & $ + + $ # & $ # & * % # & & % & & + # + # + # & % % $ $ + @ . ",
"1 , , 8 8 8 1 y w q 1 w w 6 t & : g t t g l 8 7 w 8 6 8 6 0 w 8 > 0 0 7 9 9 u p u 7 9 g t h t # : u t u u t t u t t t 7 6 y 8 q ",
"v w d B f n M &.,.f n r.V M t.$ y D.4.} F.9.,.,.N p f N N n V M n M M l 5.m.b.>.0.9.D 4.C k.5.$ h G.U k.k.d.b.j.C k.U m 4.N N M ",
"w i n y 8 d f f f d i l f w d @ 6 n f z 4.l n y y p f l p n d y l N d y 5.) U ..m f l C h K 4.$ t U m 5.m K 4.o.z K j l f l N N ",
"l l p l l M M y n c w n y i d o : f f l C l y u ) h h n p p h h N N f l ..m 5.q.m f m w.D 5.4.+ r U U w.U U ) t t E b.l l N p p ",
"m m N m l l f q v q d f p u p + e n p z l n p K  .U D m p m D D m M n n l j.h.N l p l m o.>.l + 0 ..C K U z j g E m.m m l y y l ",
"n m ..z U N m d w w d n i i l + 7 d p m o.>.l j 5.) m m l h m &.N f n n n m 4.N u N f m C.n y + 9 >.h D 4.K j W N.] m m m l N &.",
"d l h h C m p l y p f d w y p + 9 z M ,.n y t z d.U l l N m o.l l &.m m n i n N m n l l l w p $ t 5.D q.N D U a.z.h.U K k.D m n ",
"f y h C K D p h ) U l f y l z # t k.D m 8 p z K h.] m m m m N l &.N n n M f f M n m l r l m U # r  .) z l D U K 5.4.m U w.>.N N ",
"f p m D 5.U ) m K } h.p r j D % t ..z j l l K ] 5.w.4.D >.o.n n N M l l M n f l l y y h 5.m h # u } h.D D K K ) ) m h m m D l n ",
"p l o.U D K d.U i.h.} m K } w.& y m t ) E ) m.4.D m z >...N N N n y M l n f n n n f f l U h K & t } d.4.m z K  .K 4.m m m D m N ",
"l m D >.4.U ) ) z.i.d.d.h.z.j.& 6 ..h j m.S.m N h h m p m ..N M f f N N N p p p m n p m U >.m # t m.h.q.D h )  .a.b.D m 4.D q.N ",
"l m U D p h E } ) } k.x.q.5.4.$ 8 &.m U h.D o.h j K U m x...n f d f n M f p m D m m m D U j.U % u z.>.n p l U a.h.) o.h U D D l ",
"..U D m z z d.z.h.k.4...l D ..+ 7 ..m ..m l D ) U D l h.D N l y f m n n f >.>.V f l ..5.C D D # g k.p f d p h h.m ) w.m D l D N ",
"N m m U U D ) } U k.U 9.f m N + r C D &.l >.D D U >.o.w.m p y p f y l n n M f c q N n l p D h # u d.j.n p h h  .) b.>.l l l >.m ",
"d p m m z m z )  .d.o.l n m o.$ r 4.4.l m ,.l m D D m l l l p n p l f l f v s q e i l l f m D % t q.N p f l m E i.} t h l m m f ",
"& & % & & & % = * * * + % = % o * - * & * & $ & & * & $ % $ % * & * & * * $ @ @ @ @ $ % % & * o = * $ $ & % % = = % % % % & * & "
};
