/* XPM */
static char *a477db68fbe448899921124c7a677dceTslf9SnXYW5ek1WF[] = {
/* columns rows colors chars-per-pixel */
"64 64 154 2 ",
"   c #060605",
".  c #080707",
"X  c #080807",
"o  c #0D0D0B",
"O  c #0F100F",
"+  c #11110F",
"@  c #141412",
"#  c #171816",
"$  c #191916",
"%  c #1C1C1B",
"&  c #1F201D",
"*  c #21211E",
"=  c #1E1F20",
"-  c #1F2021",
";  c #242423",
":  c #282726",
">  c #2A2A26",
",  c #272728",
"<  c #2D2D2B",
"1  c #302F2E",
"2  c #2F302E",
"3  c #32322D",
"4  c #2F2F30",
"5  c #2F3032",
"6  c #343533",
"7  c #373832",
"8  c #3A3A35",
"9  c #363739",
"0  c #373839",
"q  c #3C3C3B",
"w  c #3F4037",
"e  c #3F403D",
"r  c #404037",
"t  c #43433C",
"y  c #48483F",
"u  c #3E3F41",
"i  c #3F4041",
"p  c #444443",
"a  c #474847",
"s  c #4B4B43",
"d  c #464748",
"f  c #47484A",
"g  c #4B4C4C",
"h  c #504F4F",
"j  c #4F504F",
"k  c #505046",
"l  c #54544B",
"z  c #58574D",
"x  c #59594E",
"c  c #4E4E50",
"v  c #4F5052",
"b  c #535354",
"n  c #575856",
"m  c #5C5C52",
"M  c #565658",
"N  c #575859",
"B  c #59595B",
"V  c #595A5B",
"C  c #5B5B5C",
"Z  c #5D5D5D",
"A  c #5D5D5E",
"S  c #5B5B5B",
"D  c #626255",
"F  c #636356",
"G  c #656557",
"H  c #626256",
"J  c #666658",
"K  c #67675A",
"L  c #63635D",
"P  c #66665C",
"I  c #65655A",
"U  c #68685A",
"Y  c #68685C",
"T  c #6A6A5D",
"R  c #69695E",
"E  c #6B6B5F",
"W  c #6D6D5F",
"Q  c #6A6A5D",
"!  c #5E5E60",
"~  c #5E5E61",
"^  c #5F6060",
"/  c #616261",
"(  c #606163",
")  c #616263",
"_  c #676762",
"`  c #636365",
"'  c #636465",
"]  c #646465",
"[  c #646566",
"{  c #636364",
"}  c #6A6A60",
"|  c #6F6F60",
" . c #6F6F62",
".. c #6D6D62",
"X. c #666769",
"o. c #67686B",
"O. c #6C6D6E",
"+. c #6B6B6C",
"@. c #717162",
"#. c #727263",
"$. c #717165",
"%. c #717166",
"&. c #737366",
"*. c #767666",
"=. c #717165",
"-. c #76766A",
";. c #71726C",
":. c #76766D",
">. c #75756B",
",. c #79796C",
"<. c #6F6F71",
"1. c #6D6E71",
"2. c #6F7072",
"3. c #707072",
"4. c #757575",
"5. c #737374",
"6. c #7B7B71",
"7. c #7B7B71",
"8. c #767779",
"9. c #77787A",
"0. c #7A7A7B",
"q. c #7A7B7C",
"w. c #828277",
"e. c #848477",
"r. c #868679",
"t. c #85857A",
"y. c #7E7E81",
"u. c #7F8081",
"i. c #818183",
"p. c #828385",
"a. c #878788",
"s. c #858689",
"d. c #87888E",
"f. c #8B8B8B",
"g. c #8A8B8D",
"h. c #909083",
"j. c #8C8D91",
"k. c #8F9092",
"l. c #909092",
"z. c #929295",
"x. c #96969A",
"c. c #97989D",
"v. c #9A9B9D",
"b. c #9D9EA1",
"n. c #9FA0A4",
"m. c #A3A3A5",
"M. c #A6A6A8",
"N. c #A9AAAD",
"B. c #AFAFB2",
"V. c #B2B2B4",
"C. c #B5B6B8",
"Z. c #B7B8BA",
"A. c #BBBCBF",
"S. c #BFBFC3",
/* pixels */
";   g 4.9 q g d g b 6 q ;.p k k % < 3.9 : 9 d g Z O.l.` < ; g [ 8 l t.@. .U k * @ v b p q q p d b N b p < ; # 9 p t 6...k l g t ",
"o % [ q 3 3 * % q C ; L g t z k % % V > g t 6 3 ; < f.i.Z 4.a.q t w.R @.@.F 3 X q b 6 3 % Z V 6 t 8 8 q q q d b < n m s k s t 6 ",
"X g g > _ t 8 ; # c < t t s g g % # b < g l l s % * 0.g < 6 O.q > x U @.U t o < g 3 $.k o g b t $.F x s s 7 * d < + $ * > > > $ ",
", ` 3 b n q q > @ g 3 q t p p t % % b ; < 7 7 > X g / t R * ; [ < 3 K G s @ % g 6 >.-.y @ d b t F R W K W m * % p 6 < % # @ o X ",
"<.g < m s p q > @ 5 : q p g g s % % Z : X X o o % ! e P $.s $ q [ ; t k * @ p 3 n h.x k @ 9 d t R *. .R U m < @ / [ / / V g u b ",
"y.V % q p t 8 ; X 9 ; * 8 s t 8 $ @ X.` N c V b +.Z 8  .K U s @ l b % * o 9 < t w.m x t + 9 g t W W U F m l ; % g > > 3 9 9 q g ",
"< 5.2 ; q 6 ; o + b g @ + ; < ; X , o.[ 3.[ ^ b i.O.3 m U R U 7 # N q o q g 3  .k t > @ X d V 8 K F m l s 7 $ % q 7 s p s t 8 * ",
"o g +.# $ @   % d q g b < @ o X @ v 6 < 3 6 3 % q X.: 8 m U K l * : b p O.< * > $ o @ ; 6 4.[ > y t 3 * @ o X < q 8 g z m n k 8 ",
"% # <.b % # q p : < % : d g < % d q < l p k y % @ +.n + * w k s : o b b O.o.; @ : q v X.q.z.g.6 o o o % < q g 5.p < g n m n k t ",
"o % o.O.N [ g % g S 8 6 ; : q b b : b s t t * o 9 8.X.b : # @ @ o : g < < V 8.4.y.a.p.5.b q ! q.b Z / / +.N g N b : s z k k s < ",
"; V d % # c v ; g t t p p 6 $ 4 g % > < < # X q o.b : b 3.c 9 6 p o.9 t s > 6 ` z.q.g 8 6 * % g.z.o.v q 3 ; # o g < 6 g p q ; o ",
"c 6 8 b o < 4.: 3 t p p p s 3 @ p : @ o   @ g O.p 3 8 $ ; <.v.<.~ y.b < F m * % q.n > l k $ ; 0.q 3 3 < : $ o ; 5.b $ 8 q % X % ",
"< t O.s % @ v 6 < q t s s s > o c [ b g p ! O.q t 6.t + : g.0.i.b.p.x.9 s U y @ V p.> 7 7 o 6 b 3 L q # X @ g a.v.y.6 # @ X < g ",
"g ..p 3 ;   b p o : 8 t t 8 @ ; g < 3 q d p.b $ n z $ + O.q.: f.A.v.Z.4.> m l * # q.V + @ X g d > * X @ q C q.<.q < b < o g b 2 ",
"P t 6 < o o N 0.9 o @ : < % o q 6 g s 3 @ q p.8 $ ; X p 0.< ; j.S.f.o.m.q 3 3 o $ 3.b.Z 9 ; g < o @ q C 5.Z q < q ; % b +.g ; s ",
"> 6 > o X c O.` f.! : X o o : q 8 ..l k 8 @ p q.< X < 5.s # 2 s.B.V ; 0.q.# o < O.g.[ b X.3.3.6 d q.g.5.p ; s L b 7 @ ; 3.6 + % ",
"@ o X o b o.< $ : g 4.o.b c b 6 7 n n x k 8 + b 0.q 8.V ; $ q v.N.l ; 9 x.b / a.O.e 8 6 : < [ y.M.g.j 3 8 n P g t 3 o , c X.N < ",
"b 4 ; ! +.> 6 6 X % g.g.p : p g ; k F m z x 8 $ c q.X.6 t + g m.a.q 8 # Z m.f.b 8 P &.g 8 @ : g./ 6 q L S p 9 8 8 % o 0 ; ; p V ",
"6 g b o.< 6 g % X V c.9 6 < @ b < t m F z n x < $ c q t g X b b.q.8 k @ q 0.q s 6. .z g 3 X < 4.6 % g k s t t 6 : X : 6 3 q > ; ",
"< @ q [ % 6 ; X : 9.b 8 $.q + q q < l x x z x t @ 0 8 8 ; @ d z.4.q k o d b t 6.n g g 8 o % V b / d @ ; 8 7 < ; o o q > b g p p ",
"t ; @ V 9 X X # o.X.; P m q * % g * * > 7 t y t @ q 6 * # % b a._ t 8 o b s s z k s 3 o % b q ; < Z b % o o o o + 6 9 6 m g k k ",
"t ;   d y.q % / q.< $ 8 8 8 * o u q : # o o @ $ X 6 g ; @ ; 8.p.d t > @ V 6 g s t 3 o $ g 9 t R 3 % 9 N g p 6 i p V < 3 s l z s ",
"< o % O.o./ +.a.p.i * o + @ o # p g b b g p < ; < g d g a ! 5.g.3 $ o ; g : 6 8 > o # d 6 8 -.m k > o X.V < < < % q g $ 3 t s t ",
"o # / N * @ Z y.x.g.q.` 0 ; # p q 3 3 6 6 8 q V Z 6 t 7 8 8 6 / N 9 < q g ; @ % o # q 3 8 &.n l k % # v 6 g s 8 * @ V q o @ ; < ",
"@ Z V : t + p <.p p b u.f.8.+.u 8 >.n k s 6 + q g t >.n m t ; o b 0.q < q g < @ % g < 3  .x z n t + 6 V 8 P g t * o N 4.[ q @ X ",
"[ / < m L X d 3.< q 3 < 6 u o.9 L P x F n t o d q t k z k t > X b g 3 p < > < p N 9 q _ k z n x 7 X g g t L s t @ ; [ q d o.! g ",
"q.9 s >.7 + p O.3 k k s * # b 6 l l m m l 6 o d 6 s n n l p $ # b < m K z p ; % g ; l g g z k k ; @ b 8 n n s 6 X q q 3 3 > 6 V ",
"o.p 6 s 8 o q ` < p s s % ; b < s k z k s > O d : * q l l 8 o < b < l m F m g # < 9 % q s t q 3 o < d < m l t ; o g < z m g < @ ",
"d ! ; t <   9 N % ; 6 6 + < b # @ * 3 8 3 @ % O.g # o ; 7 : X p p 8 m F R F z 3 # p * & % @ o o @ p g % 6 t 8 @ % b 6 R m m s % ",
"% ! < + o % C p.d @ o + o p 4./ q % o o o o g 5.z.y.g % o o o u < g n F m F z t @ < 6 o % < 9 p d b 3.q @ % ; X q g 6 m x m x 3 ",
"o d b 8 g b g g V N b < q g q b O.O.` 9 < i g < b g.v.q.u @ = i < g k l n z z s % # Z +.[ g q 6 6 > 9 c d ; X X b q @ ; t g k 7 ",
"+ ; <./ p q s 8 < 6 q c g < < < < 6 p d o.[ 2 7 > > b g.x.8.q.g < s t p k k k 7 X < Z g.0.* > z k s 3 % q / d d 8.o.d ; o @ ; > ",
"o q q 8 R 7.$.m x t $ < g 3 g z l s 8 * < [ 3 k x t > < b <.v.9 @ $ * > 3 8 8 $ @ q ; p v.! $ t n z z t * : O.g < i o.<.N 9 % @ ",
"g g 7 t.-.W m x l s % = g < k m m F n 3 @ Z 8 k K U m 7 $ : y.o.6 % % @ X X o o 6 6 3 $ b v.g $ s z z z < @ c 3 t 8 3 6 p V V g ",
"+.d t R x x k t > $ X < g < k m F m x 8 o b p k U K m t # % O.q.q.` N b g g q p q t K 7 $ V k.p % p l g % ; g q $.K U x t 3 < q ",
"6 d 3 t 3 * + o + % q +.O.; 8 z n m z t + q q t x k t %   0 g % > 1 < q p g N o.3 m R m 8 @ V q.6 * s t @ < q s @.U  .R K x t % ",
"; s @ o X # 2 d V X.<.{ 3.p * g x x p t @ < q % % @ o X , ! ! 4 @ % > < > ; @ g t g m F n 3 @ ` q.< ; 3 o q q s m F F m l k t * ",
"# 0 9 g N 2.O./ b p 6 > : ` < 2 g g t 8 @ > b : < , 6 d 3.z.j.g.C % o ; 6 3 o q q t n n z s ; ; p b : @ @ g 3 > > > : * % $ @ o ",
"q ` g.m.4.g 8 6 7 t l t # 6 d # % % $ @ X : g d g q < 0 k.x.z.N.N.l.d # @ * o q 9 < t t t q 6 % % 5.4.% % g ; # % % % % ; < < q ",
"c f.x.V./ % @ q b k x s < + p g ; ; ; ; < q 6 t t s ; @ q.3.i 5.m.b.v.! : o   9 6 X o + + + @ @ X < a.q.V p.y.5.3.O.b V Z f V Z ",
"9 o.p 9.M.l.q @ + > 3 < * o q V q q q 9 b p 8 &.z m 8 X g p.< ; d 4.j.x.j.Z ; 9 +.b q 9 9 6 < < 4 u 0.V p c.p.g p q q 8 8 3 < * ",
"6 g < > q 0.1.C q # o o o < g 6 y t t * : g 3 s g s t * # p.Z > > > g 9.V.M.g.<.b V V v d d d b N g.V < $ g 4.> k n m F m x t % ",
"q q k z 6 % 6 q.y.4.o.b N / 3 $.,.K F 7 @ g < q k k t 3 X g i.: 8 6 * < C j.C.b 6 7 < 3 1 < > % ; 5.q k 6 # 4.g 8 U W  .K n 8 @ ",
"q 9 t g s % # 4.m.M.V q ` b 7 $.U K n t @ 6 9 8 L z p q % % o.d % 6 6 > # u p.8  .m t g p q 8 $ : 5.6 k s $ q 3.> l R K F k > o ",
"p : > t 3 X q l.C.O.< @ p / 8 F K F k s % % p 3 n p s t < X g 9.; X o @ X % b q n p s s p 8 3 o 9 Z 6 z s 3 @ Z d < l l s > X # ",
"b b # % @ % ` z.l.q z % q b t n n F x s > @ d < q 8 7 < #   6 a.N p 9 9 4 b p 3 t 8 8 6 3 > * o < d 8 z t < X q C # $ ; @ X < g ",
"% b Z % @ g p.v.b t L + p g 3 s s k k s 6 o 9 6 % % o . X ; Z b 6 p 9 q q b p o o o X X X X X @ b q 3 6 % o @ ! 5.C t @ % 9 d < ",
"@ : g.f.3.p.z.+.3 q 6 + 9 d < p p s p t < o % q + % < u v q.i.< 8 8 3 3 * @ g d q q q p p g g ! q.< % + o 6 +.<.b p / O.V q 3 t ",
"+ 6 g.4.b Z N.3.$ + + X q p < t q 8 > @ X @ q <.X.V g g q.l.g.q < t t q 3 + q +.V b b b g g g p [ g o ; [ f.[ 6 t 3 $ 3.p t ..k ",
"o 6 p.d * $ ! b.q./ 9 9 5.p o % % + o % 9 g d Z 3.< * @ [ j.b.+.: 8 q 9 3 @ ; < 3 < > 3 3 6 3 % % o./ g.z.g 3 K ,.8 @ C q l z 8 ",
"o d i.8 ; @ 4.v./ b d d / 3.q ; @ : < p q 3 ; * [ < 3 @ < x.n.c.g < g 7 %   < 2 s s p z g k k 7 @ < 9.p.8 t 7.@.l < # g 8 s k 7 ",
"@ ! 4.2 $ % y.N 3 8 ; o < 8.V Z o./ 6 < t n t @ b q < > o O.b.x.8.> 6 @ o < / 9 * t k g s g s q * # / 3 3 P m t > o % C < 6 t > ",
"# O./ * @ b g.p n n % @ X.p % % ! f * g K n g $ 6 g > 8 @ < a.d.b.9 o < g g d p ; < 6 < ; * % @ X @ / 9 + % * + O < V 4.i @ > % ",
"- 0.V @ : l.3.3 m 7 o < C < 8 X p O.: t s x l : % f < s 3 # X.k.c.a.X.+.s 3 * 6 d @ + @ @ % % < q g q.4.b < # < b b t 6 [ g @ + ",
"g f.g X [ g.9 * < % o p 6 t z @ ; 0.< 7 k l s ; + u < ; * X p z.N.V.` 9 s $.t @ g V V c b b g V [ p.V 6 b Z o.O.s 6 k 3 % b b % ",
"0.b.N b v.m./ : @ X < L 6 n g 3 @ [ p > t < $ o % / b % % ; g c.g.p d S n K l $ < O.h 6 9 6 3 * < a.g 3 > % 0.b 7 e.,.F 7 % q X.",
"j.m.g.3.b O.p.f.o.b o.g s P s t o p / % @ X # p ` [ y.y./ b [ m.V 6 >.b t G m $ < d 3 x z g t % % p.q g p o b / 7 $.W W F 8 # d ",
"[ V t s t 3 < t b O.p.8 s l z s $ : O.; ; b u 0 p * O.4.8 8 % / k.< g W W W x $ < p s @. .F s @ < +.6 m k $ 6 o.3 F $.R F k < @ ",
"b 3 n ,.W m x t < % C d ; t l g ; # +.<.2.V q 6 7 @ b S y  .> % g.b > K W G k $ < e y R W K s + 9 o.8 K m > % [ q k U F k < @ # ",
"v < 3 n K K F F x % 2 V * s s q * o ! Z 6 8 F $.s @ p g s R k @ p p.3 > 8 7 3 @ < q t R K F t o 9 / 8 K F t o g g 8 z 7 $ o > p ",
"< c ; 8 x x n n z 3 @ b < @ # @ X : g > k ..R x t + g b s U x 3 @ o.[ % # @ + o 6 9 t K K x 7 o d b t R m g + d Z ; % o % 0 p 3 ",
"+ 4 d % 7 t s g t > . 6 N 6 < < 2 c , @ : > 6 t 7 o d g t G l ; X b l.! V V g g [ q 3 x m l 3 o b g q R n k $ < <.: * q q 3 6 3 ",
": + g p + @ % ; ; o @ d b q p q q V C q ; @ o @ @ X g g 8 k : o q 4.b 6 e t q q g b % ; 7 r ; o c d 3 s k s ; @ O.o.N d 8 m ..t ",
"3 o < 0.b 6 % @ o @ q 9 > 6 t 7 $ : y.a.3.! v 9 : % Z b ; * + 9 [ p k ,.m x t 3 + d b % @ @ + % ! g @ $ * > $ @ Z g < k >. .k t "
};
