/* XPM */
static char *_4b5ea2f4a8f42a7cb5624eaac22ef23KYys6x8pdsmShFPO[] = {
/* columns rows colors chars-per-pixel */
"64 64 8 1 ",
"  c #37540E",
". c #3B580F",
"X c #32510C",
"o c #405C10",
"O c #2F4C0B",
"+ c #466112",
"@ c #2A460A",
"# c #506915",
/* pixels */
"X.++.o+###+...o##+.XOXXXXX o  ..ooo XXOOOXXOXXXXXo++++oXXX.XXo#o",
"..++ .o###++..+##+.. XXXXOOX.  X XXX.XOXXX.XXX ooo.oooXOOX X.oo ",
".o..oo.+##+#o.o+##o.+#+o OOX  XOO@O .   X ..oX .o+o . X . X.+.O ",
"+#+o.. .o.. . X.o+..+##o  XOXOO@OOOX ooo.oo++o..o++.ooo++XX+#. o",
"o.  OOOXXOXXXX.+#+.o+##+..XXXXOOOO  .ooo+++##oo.  . o###oo  o.oo",
"O .OOXX  XXX.o.o... X.o+o XXXX OO@@X..o+##+o.+o..+#o.+#+oo.X X X",
"O..   X ...X .XXX XX.+o+++.XX. OOO@Xo++#oooo...o++#++o+o. XOOOO@",
"XX oo. oo++o  XOXX..oooo+.XOX  XO@OXo+..o..+.o+##o+++   .XXO@@OO",
"  ooo+++##+.  .. X.o+o... X  XXO@@OX.XX. X   o+##oo.X@X  X @@OOO",
"O ..o+#++oo. oo+o...++o.o.o+ XO@@@OXXX. XX  X .##+o oo+o+..OOOO@",
"@ +o++oooooo++##+oo  . .+##+o.XO@@XX .XOXX o  o++o O +ooo X .OO@",
"O +o .o...++#++oo+o .++.o##ooo XOOX..X XXXo#o.+.X #..o +.XO.oXO@",
"O .XX. .+o#+oooo.o ++#++o++o.X. XOXX XX...ooo..XXo#.X.++oooXO@@@",
"OXX . O.++.o..oo.++#++++.  . Xo..XOXOOO.o+oXXXXX..+ .o++.+  @@@@",
"XX. O@O .X    ...+###.o.OO  XXoo.XXXXXO X.oOOOXOO.oo+ Xo.o oXO@O",
" .  X@X XX. O X  .+#+o.o..oo+.+o.XXXXX. XXX ++  ..o##X.o##+o XOO",
" X XOOXX. OOX ..X +#+oXXo+oo.X.++.XX.  . .X.##..+o .o.oo.  .o OO",
"OXOOOO   XXOO ++.o+ Xo+ o..o O o.XOX   . .o.. X@  OXXXXXO. O. .X",
"XXXXOO   XX...o+.o.X ##X.o++.... X. XXX ..XOXXO@ oXOOO@@X.  +..X",
"XXXX.XOXOO .o+. X OX.+oX.+#o+o.oo+#.XXOX  OX@@@O OOO@@OOX .o+o.X",
"XX.  XXXXOX  + OOXOOXo.+.X.... +##+ooXO ..XOOO@@O@@@@OOX  oo++o.",
"OX   XXXX  XXX .+   ..+#.X.+#+oo#++o...o XX@@O@OOO@@XOO@X o.oo.O",
". XX. XX. .   X+#+.o#..+ooo+o.. o+..X.oo.O  O@@OO@@  OO@O.+..  X",
"# X  OOX   . o..o XO.XO X  XX.OO    X++ +oX X@@@O@Oo X@OO.+..oo+",
"oo. XX  XX ...XX O@@..OOOO@O..X  . oo.++++OXXOO@@@@@O@@@X.  .+##",
"oooo.++XXOO .XOO@@ X XO@@OOOXXoo##oo...ooo...  XX OXXOOX   o.o#+",
"...###o. OX o OOO@@@O@@@OOO  .o+o. XOOOXXXXXXXo++++o XX. .+#+oo+",
"   +#+oo. ..XXO@@@OOO@@OOO@OX  XX.XOOXX XXXX..o.oo+ OOX  o+o  OO",
" .oo+o..XoooXXOO@@@XO@O OO@@OX@OX.   XX...  .o+o .. X. XX X  OOX",
"  ...   .+..  X X@@O@@.+XX@@@OOOX .oo .oo+o...++..o.++ XO@O..X X",
" oo+o...++o.o.o+.OO@@@@OO@@@@OOX .ooo+++##+oo  . .+##oo OOO  oo.",
"+++#+oo  . .+##+o.XOX.. X @@OOO@X o.+##++oo+..o#+.+#+oo OO  oooo",
"#++oo+o..++.o##ooo .+++o.XO XOO@O.oo#+ooo....++#++o+o..OO@X o.o+",
"oo+..o +++#+o++o.  ..X XOOX+ X@OXo+o.o..+.o+##o+++   . OO@@ oo+#",
"..oo.++#++++o   .OXOOXo.OXXOO@@@O. O  X . o#+#+.o @X  XXOOO.++.o",
" X.. +###.o.OO   OOO@X  o.@@@@@@XXX .XX X X.##+o.o.oo+oO@@O .XX.",
"O X  .+#+ooo..oo+ OOX  ooo OO@@OX .XOXX o  .+#+.O o+oo.O@@O XX. ",
"XX..X o#+oXXo+ooo OOO  ooo+.XOOO..  OOX.++.ooXX+o o ooXO@@XX..OO",
"O o#.o+ Xo+ o..o O@O@O o.##o.OOX  XX ..oo+.o X.#oX.o+oo. O . XXO",
" .o+o..XX+#X..++.. OOOo++oo...XOXOOO .++  X O .+. .++o+. O   XX.",
"o+. X XX.+oX.+#o+o.@@O.oXX.  . XXXXOXX.+XOOXOO.o.+.Xo o .XOXOOX.",
" + OOXXOXo.ooX.... X@X XX. OXX XXXX  XXX o+   ..##  o+#+oXXXXXO ",
"XX  +   ..+#oX.o#+oX@XX..XXX . X  . . .X +#o.++..o.ooo.  XXXXX X",
"  Xo#+.o#..+ooo+o..XO   XOOO ++..o  .. o..oXOX OX X  O  OOXX. ..",
" oo.o XO.XO X  XX.OOO .  X  .o+.ooX  ...XXXO@Oo OOOO@O..XOOX   .",
".. X O@@..OOOX@O . OOXOXO oo+..  XX X .OOO@@O XOO@@OOO   X  XX .",
".XOOO@XX XO@@OOOX ..XXXXOX o+XXO OX ..oXO@O@@@O@@@OOO  o.++ XOOX",
"o OOO@@@O@@@@OO  ..XXXXXX XX. X OXX o+# @@@OOOO@@OOX@O.+##o. OO ",
"XXO@@O@OO@@OOOOO .+. XX. .  X +#o.o+.o#.o @@@XO@O OO@@ +#+oo.oo.",
" OXX@@@OO@O XO@@Xo+ XOX. .....o+   o X  ..O@@O@OooXXX +++#o.+##+",
"+ X O@@@@@ +XXOO ..XOX    ...   O@@. OOXOOO O@@ o oo.+##++o.oo##",
"oo OO@@@@Oo .o.XX.. o+XXOX .XOOO@ X. O@@OOO X .#++..  ... . X..o",
"++oXXX OX+#+o.. .o+##o  OX .XOO@@@OOO@@@OO  .oo. XXOOO OXXXXXo++",
"ooXOOX  oo  XOOO .+#+oo.     O@OO@@O@@OOOOX o.OXoXOX X.XXX o+o..",
".   o XXXO..OOXX oo+oo. .ooOXXO@@OXO@@OOO@@Xo O . . XX..o  .o+o ",
"o++#+ XOOX.. .XX ooo.  o+.o.   O@@OO@o+OO@O.++ X .oo.o+++o..o++.",
".###oo OOO  oo..oo++...++ .+ OOO@@@@@OXO@@@Xo X .ooo+++##++oX . ",
".+#+o...X  ooo+++##+oo X. .+. . XO@@@@@@@OX.XOOX...##++o.oo.o+#+",
"#ooo. XoXO o +##++.o+..o#+oo+. .oo. XXo++##+. OXo+++oooo...o++#+",
"+X   X + O.+o++oooo.o.+++#++oo o..+ O ######oo. o#+oo .+.o+##+oo",
" @X .  + O.+o o. oo.+##+oo+. .X o++ooo.o+####...o##+.XX  o+##+oo",
"oo+o+o.. X  X .X   .++##oo.OO  .o#ooo   o+##++o.+##+.. XOX.##+oX",
" ooo. Xo# XX .XX  XX +#+o..ooo+oX ..o oo.+##+#o.o+##o. X X.+oo.X",
".o o.XO+#+.o X o.. O o++oXO.++#oXo+#+ooo .oo... X .oo.XXXX .XX#o"
};
