/* XPM */
static char *_201d55e217b4877d2622bc286af0bf0IoPbKcM1gy3myVD0[] = {
/* columns rows colors chars-per-pixel */
"64 64 256 2 ",
"   c #020A01",
".  c #011501",
"X  c #011B02",
"o  c #02180C",
"O  c #021D12",
"+  c #012303",
"@  c #022B03",
"#  c #03250B",
"$  c #022C0B",
"%  c #092B09",
"&  c #013403",
"*  c #033C03",
"=  c #03340B",
"-  c #0A350B",
";  c #043C0B",
":  c #0B3C0C",
">  c #0B3805",
",  c #12390A",
"<  c #042914",
"1  c #043413",
"2  c #043D13",
"3  c #0B3C13",
"4  c #0B3C1C",
"5  c #083619",
"6  c #143B18",
"7  c #152B07",
"8  c #0E3726",
"9  c #034303",
"0  c #034C03",
"q  c #04430B",
"w  c #0B440C",
"e  c #044B0B",
"r  c #0C4B0C",
"t  c #0A4704",
"y  c #12450C",
"u  c #15490A",
"i  c #035304",
"p  c #0B5405",
"a  c #025B04",
"s  c #04540C",
"d  c #0D530C",
"f  c #045B0D",
"g  c #0B5B0C",
"h  c #0B5A04",
"j  c #13550C",
"k  c #135C0C",
"l  c #175805",
"z  c #044413",
"x  c #0B4414",
"c  c #044D12",
"v  c #0B4B13",
"b  c #0B431C",
"n  c #0C4C1B",
"m  c #04471A",
"M  c #134415",
"N  c #124B14",
"B  c #1B4B12",
"V  c #13461B",
"C  c #144D1B",
"Z  c #1B4B1C",
"A  c #1C4417",
"S  c #045312",
"D  c #0C5413",
"F  c #0C5C14",
"G  c #04541B",
"H  c #0C531B",
"J  c #0C5D1B",
"K  c #055C17",
"L  c #125414",
"P  c #135C13",
"I  c #1C5D14",
"U  c #13551B",
"Y  c #1A531C",
"T  c #135C1B",
"R  c #1C5C1B",
"E  c #1A5613",
"W  c #254818",
"Q  c #245A17",
"!  c #285312",
"~  c #04640B",
"^  c #0C640B",
"/  c #0B6B0B",
"(  c #076706",
")  c #13640C",
"_  c #156809",
"`  c #09760A",
"'  c #157809",
"]  c #066313",
"[  c #0C6313",
"{  c #0D6B13",
"}  c #0C621A",
"|  c #076A19",
" . c #126413",
".. c #1C6513",
"X. c #126C15",
"o. c #1B6B14",
"O. c #13631B",
"+. c #1B631B",
"@. c #146B1C",
"#. c #1C6D1C",
"$. c #0B7314",
"%. c #0A7719",
"&. c #147314",
"*. c #1A7A13",
"=. c #14731B",
"-. c #1B731B",
";. c #147B1B",
":. c #1C7A1B",
">. c #177713",
",. c #266719",
"<. c #24741B",
"1. c #237B1C",
"2. c #267618",
"3. c #287010",
"4. c #0A4825",
"5. c #164926",
"6. c #0B5826",
"7. c #145423",
"8. c #1B5324",
"9. c #145B24",
"0. c #1C5B23",
"q. c #1C5C2B",
"w. c #15552B",
"e. c #1A4D31",
"r. c #175832",
"t. c #0D5932",
"y. c #244B26",
"u. c #265927",
"i. c #255A37",
"p. c #2D5627",
"a. c #0D6826",
"s. c #146423",
"d. c #1B6223",
"f. c #146B23",
"g. c #1B6B23",
"h. c #18692B",
"j. c #0A7625",
"k. c #157423",
"l. c #1B7424",
"z. c #1C7B22",
"x. c #1B7B2A",
"c. c #187728",
"v. c #1A6833",
"b. c #197835",
"n. c #0C6B31",
"m. c #226423",
"M. c #236C22",
"N. c #246C2C",
"B. c #296928",
"V. c #237C24",
"C. c #2C7D24",
"Z. c #247B2A",
"A. c #2C7C2C",
"S. c #267327",
"D. c #357729",
"F. c #226B33",
"G. c #276636",
"H. c #346738",
"J. c #287736",
"K. c #357735",
"L. c #316727",
"P. c #497433",
"I. c #425C37",
"U. c #2B5B4B",
"Y. c #1B694A",
"T. c #256A45",
"R. c #257844",
"E. c #347944",
"W. c #326F50",
"Q. c #22675C",
"!. c #49764B",
"~. c #446862",
"^. c #08860A",
"/. c #17870B",
"(. c #0A8615",
"). c #1C831B",
"_. c #188819",
"`. c #19941A",
"'. c #109511",
"]. c #238C1D",
"[. c #258619",
"{. c #328C1B",
"}. c #269719",
"|. c #2D8F16",
" X c #1CA219",
".X c #2CA81A",
"XX c #1D832A",
"oX c #198826",
"OX c #199727",
"+X c #198635",
"@X c #088D28",
"#X c #2A8423",
"$X c #238A24",
"%X c #22822B",
"&X c #2B832C",
"*X c #2B8B2C",
"=X c #268825",
"-X c #338729",
";X c #289627",
":X c #35982A",
">X c #2C8433",
",X c #258C33",
"<X c #2C8C33",
"1X c #288839",
"2X c #378837",
"3X c #2D9A33",
"4X c #2B9536",
"5X c #379739",
"6X c #0FAC2D",
"7X c #2AA528",
"8X c #35A728",
"9X c #2CA736",
"0X c #39A638",
"qX c #39B637",
"wX c #2BB62D",
"eX c #448836",
"rX c #43983B",
"tX c #48922E",
"yX c #45A83A",
"uX c #47B939",
"iX c #4DAE33",
"pX c #30C418",
"aX c #37C82E",
"sX c #46C83C",
"dX c #368646",
"fX c #389947",
"gX c #328C4E",
"hX c #39A746",
"jX c #35AD4F",
"kX c #20984E",
"lX c #468748",
"zX c #469946",
"xX c #4F9552",
"cX c #48A747",
"vX c #47B746",
"bX c #53B849",
"nX c #47A653",
"mX c #56A957",
"MX c #47B755",
"NX c #57B659",
"BX c #58A74C",
"VX c #528E67",
"CX c #56B067",
"ZX c #6AB16B",
"AX c #659E5C",
"SX c #29D151",
"DX c #4CC656",
"FX c #50CC4F",
"GX c #67CB54",
"HX c #62E15A",
"JX c #69CA68",
"KX c #63D068",
"LX c #81A567",
"PX c #6EAB93",
"IX c #6FCF85",
"UX c #B9FFFF",
/* pixels */
"H.5Xo.# -X..A - ] @X3 -XJXN.q.* b ;  X8X2XU 5X9 l.k # [.[.zX].#.g g ;X,.v M <.o.G.vX5X&X*.`.fXK.dXF.+ XX7X,.> @.G < n +X1Xz 9XqX",
"6 3.f B...1.<...@ O.S.L wXs bXr m 9.uXX.oXbX^ q {. .# H.B.{..Xy r X.5Xp.2X2X2XcXeXyX;X=XqX}.q M Z R.} Z.o.M 3 w 5X4.c 4.4XZ.fXhX",
"+ V.KXl ..M.) k 2 [ & fXuXK.bX$.q f.m.0 [ yXU } a + 3 B [.u 7 # f S.uX0 cXbX, u.V.p M.1X3XC.q 5.H N 8.K [ l.* L 5XH ; j.oX9X'.*X",
"7.dX8XC.iXv V > w [ p $.' >XZXq DXQ 9 S.}.& J.u 1 : @.}./.&XE 4.4XL.yXa 3 #.r 5.Q M.,Xx.$ 9 r M F : N s.D.]./ * $.$X).OX+.a.qXvX",
"N.Q a E.GX( D.  ^ sXk dX, 1 -.q mXlXq nX8X..Q D x a.yX*.* vXR } A.I l.: e.c h.G.+.ZXIX9.y.:X/.+ B Q ,.2X:Xo.&X9 ^ $.hX@.*Xn.=.0X",
"n.F A.d.h lXC.0 ' @._.P d.+.XXA.X 4.y.zXD 5.Z x ; f.tX0 J.eXz R 1.HX[.H t.fX#X-X#XR J.G.2X5X;X9 p.u.+ 5X8X> +.M.,.h.b.g 5Xx q [ ",
"+.T MX:Xz cXo.g #.@.0 ` MXKXn N % &. .+ 0.=X:.V jX& X x B.R 4 9.hX<XC.O.T *XS.rX-.- $ 8.<X+.* h.m.y F a.,.s.[ 0X,.Y s.t.w.s 4Xg ",
"3 D x.:.-.$X`.* P $X5.oXl.H.m.: y.sX:X. BXcXd b 1.; P * = z * s tX) p N.,.t #.wX$XL.e 2 N.M.K A u Y P I <.P Y k.cXS.oX4.J =.oXoX",
"3X[.> / #.3XpX* v ;XfXg.X H N g q V s.& A.,.4 Z 7.A.rX( S + dX: t <.=X@.O F.I O.B 0.d G c -.=.m.L.g r E y d t e ,.A.5XS.7Xv i =.",
"A.Z.=._.u.>X-X+ dXJX+.@ w hXm.N n 7.D 5XJ.+ U r b 6 D.uX0 X p.y.[ 2X#X& e.T.> t 8X[ + P <.N.u ^ q F & ;Xo.4.X +.P v d.%X+.; 4.; ",
"q.. $ U 3 5.A B k xXJ.G.= 8.D S K $ 9 b.5., C q X - 3X2.d.: k 1Xc m.%Xy.8 < 6.H FX:XW 8.y e A.#Xp 2.*.( z z J.nX0 e XX1Xu.B 1 h.",
"G.S.4 y.2 g ;.z.e ;.&., D  .GXt . + } +.C 5 mXv u.Z.eX* f.F H.T.7.=X>X6 B 4 r.r.6.4X9.4.c e z.:Xo.& :.C S # Z.-.q s ` g.P , rX,.",
"P vXP # N a XX} 2 d.s Q X fXBX@ 3 3X:XX + q.S.).hXoXZ.0.; X.r NXu.G.VX5 * e ; = v.F 3 0.d o.2XV.' f.d ..=X$ 5.P XXO.S & z S 8X|.",
"+ k.{ U O.4 b.s = ' ).-.K.,.M $ n P r w :.7.q r ..3 u.E.xXcXe fXe.5 h.x.5.& > $.f.dXr x F <Xf.@.;X; d N.fX#XP H ~ %.F ; $ *.:XS ",
"4 4.a.NX) # n J c.e cX).xX6 < b b.x { _.X.7.q.`.k Z ( +.J.s.e z e.Q.<X.XW.y.i n.MXxXM @ a.R.8.@.6.*XX.9 * { @.^ + S * d.K #X}.7X",
"s.dX6 K.y.r.d p.zX< Z T * 3 v : p }.].P _ 2 y.yX0 s v.9 G 9 i 7.v p.f cXB.5 F @.BXQ b P 6.8.& F.;X-X<.  -XN x #Xq.q.* q T S.&.+X",
"nXY #.` 5 b.q : F r.A.0.& [.*.X.k. .9 / zXO r fX3 w.,Xw f.[.A.y x i.1 C.|.d / 5XH.A.c 8.6 z 6.9 d k Z $ dX>XO.Y R v >.=.& =.n.Y.",
"R.E 0 FXt & :.r 4 Y.u.8.= t ..tX#.w 2.L #.4.O.N.c r.l.N.[ -XxXmX& 6.4.; A.=Xq.P.B : D 4 v.t.z c & 5X1.+ b V.;X& y t { MXv G T.f.",
"f.T R.cXl + l.J.1 t.8 e X.N.rXeX> + A.@.x v X e | w :X>.N *XK %X-.H S q.,XyXzX!.#X,.-XM 6.b 0.= v ,X0 v O.* x : v ( #.sX,XG eXI ",
"m.q i.B.W z.;XX 6 o.+ ; ( 5XP.A v V.%X+XH.5 r.0 W.PXnXJ.CX_.* -.}.P & z n.XXbX! xXtX3 L * 7Xg + 3 d @ &.V.+.S.e >X<.V s.f = #.l.",
"L.B & + B l.2X; $X>.* *  X8X) y.4 eXE 4 - 8 4.& PXUXY.>X).oX*XH z.:.P J.G.i B.! I.H.y 9 @.8X:.F B.cXX.& = 9XI + 0.2X`.  # 4 X.X.",
"* w.n P d.M.' $X}.. * s DXqXX.R 5.5.4 v . 0Xw.< F.m.+.7X@.J.<X).Z. .k yXB e.Z., 2XR Q 7.J @.vXD.9 L / q B.8.& <.T q u.O.K G -.D.",
"d b F 8X,.$ )./ 5XD.p OXOX_ > w & A r ~ H h Z.$X@ j :Xh U N { ;XR.,.,.f.3 4.0.d v.p.o.f.k.c.z.* e ;.uX{ u G.jX8Xh.v.& } | P D.LX",
"dXg e t x # 8Xh #.u @.).;XS.bX:.= % r $Xl.+ 0.].w 5.7X;.d * N.zXh.0.0.X x $ > p b u.<.V.P F.g.@ m d.<.N.w.* PXVX@ 7.a = 7. .p.AX",
"0 b hX*.5 # *X[.X $ &.$XbXL zX5XGX0 e ]. .. d M.= z >X` X.jXP - @ #.L 1 3 8 o.+.+ 9 F g H u.m.w.u.1 [ O.6 s Y !.@ S.DXs s.gX, R ",
"K O.>X#.+ 2 / =.rXaX}.;X#Xg B.u.GXh F yX( * 2XuXp 7.< g.oX$.XX!.> d.N K 3 : -Xu.o ,.l.w o.5X; { A.* yX2X+ XXL @ z =.jXS +XJ.x g.",
"f DXp G z 2X-Xa 5X;XD p 2XyXM w & ) :X0X .+ nX8X).$X] 5X2Xy 1.j t K.5.i 6 W y.: @ k F D  .:X .} i : m.O.rX%XX.k ] U :.r ] a z.T ",
"9 / $Xh.m <X<.-X;X& w d.B.U 5.h.S.:.d.A.r 1 & l.:X:X).0 U W {.X !.0X& b 3.2XN.2 J._ * D x.S.vXV.D 5.# 9 eXM.r tXM e /.d X.#.FXj ",
"uX .;X{.9 * A.M.wXG.* S 6 J.9.J.-X*X0X& 5X+.# 5.T.m.9 O.Y @ & x W.N D O.xXJ.5.L Q.J.<.+Xk.a.].iXXXx & ..y = #.X.zXyXN. .k.} =...",
"%X#.$.{.D 5X;X& oXR M.j s.x.} OX$X0XyXa +XS n a.J.Z 0 rX,.2 V.>.f e ).& A.J d.B.| sX-.d.4.O.vX*X5XO.j P y K.,XR Q Q D.^ 9 ~ _.P ",
"m 4 k.2X$ J z.1 U = ,X..+ gXzX|.*X{.L ~ [ J.bX@ | _.i nX#Xd ;X_.g g k >.9 t.} > fXVXM + q ) o.( j g O.5XR 1XD * [ ,.D.(.e f ` { ",
"2 = H fXD t z MXT i _.OXk X a.vXK.-.1.1X@.8.m.J vX'.e l.' { < 3X8X; U *X>XXX/.k z.E.b.f.N E ^ fX$XS.M N d fXw 9 :.#.0 ' ).` /.g ",
" .' 0 d C fX% %XD e fX<XhXg { $Xh * O.fX1X2 z 3XuX[ B.rX>Xq + J.-Xl x *.5XlX0 9XA.k.~ e U u.< fXoXG.v.r r 1.P.N D.*Xr ' 8XA.f ;X",
"} L &.V.H v.w * 9 J.vX0 &X}.* G 5 X v 3Xp x 2 m O.{ Z.1.cX[.* x 1 8.e.dX[.0 e.F.K.h.p i s =.b.w.B Y 6.d.E y i.ZXK.p x =X' e w.m.",
"' H <.Y p 7XP } * E.BX& #XA.@ 3 0 ; L G.n @ 2 G ` &.U g ;X).s @.5.fXgXo mX:X6 w B % A.HX%Xs &XP D.B.2 2XV.C.N eX3X>.f.3 FXC.V w ",
"GX1.+.* e N.d.7.J  .8Xg , N ~ _ ).b.B.+Xf.. ; q ; S 6.x.0X<.4X<.$ *X..X mXjXx a.zXp.b NX2X;.y I 8Xq ; N.<.;X#X2X#.`. .@ CX3Xx v.",
"Q : ;XD & q X.= ; 4 NX-X+.1.> z.$Xa.x <X;XO.w 3 r 0X5X&./ %X5XcX:.oXe G 6.+Xx s.2XD.@ q %X:.x 5X;X@ L H :.;.-.jXOXOXi G a.+Xw h.",
"/.+ v r #X-X2X  X 1 h.!.<X).r cX .e : g ~ dXB.y.^ 3XbXh j.sX' s mXxXT * b.@X& r XXp j ;X}.O.k ( v =.R Z.:.O.`.k.jX7X{ q +Xj.& r ",
"JXp & N NX5XM.$ = 9.t ^ L.% ( k : zX<XD v N.u.Y r g c &.dXnXp g.x.# 2 f S 2XmX@ >X;.& 1X#X* 4Xb.r _.N ;./.`.;X_.K ~ %.a K zXxX@ ",
";Xt Y X.fXxXA < H 7.f.'.1.$ :X<.2 qXi Z M w ) `.h J g i.1X| +.5X).d $ 9X&.D.NXq 4Xl.d xXP >.MXP d C.+.wXp ( ( hXoXs G wX/ 2XcX* ",
"/.x.q v O.*X% < r.6.[ )._.s CXzX9 0 W lXj + *XuX( ;X,XJ.N j.uXGXX.$ b 5Xo.&X{ * fX{ $X X2XuX*X8.,.,.M.DXy 9 *.^.( f | 3X#.*X[ * ",
"N G A.-.* d + < Y.9 6 g.q @ V l.F D.C.zX0.@ , *.vXcX3 ;X` x.#XbXh.8 5 ; -Xl.F ^._.K.} r S l.r i.AX,.w ;.}. ._  X` 2 ] ] *X#.[ (.",
"D...5.C.U $ a.7.; z.0 & z.j 9 a M @.A / u + y.).1X5X* fX}.=.oX#.5 8 v 0 vX:.G 5XJ.H.$ * | K 0 >.T.B.6 q >.+X} t x z } a FX{ a.5X",
"*Xo.-.3.. - h.8  .8X{.& ].+.; D -.(.w & y & ;X .; qX^ O.;X^.5X0.8.o v.;XvX[ . 7.<.* O.1Xc * 1.gXi.R R = k.| b.h.9 e @XOXqXG + 0.",
"jX .$.O.3 ; e s ).].xX-XO.:.[.@ ,X].:.x & #.8X;.8.FX/.{.0X;X:X&X0.s.c ). .4 - d s.N.b.+Xs.& dXw.G.{ u B K.lXG *X' ~ %.(.} 4 : d ",
"E.D.> XXR @ g s.# h.:X&.S.*X2Xl.G.-.s.1 c -XbXL 2X{ ~ ;Xq zXiXs e.fXf.9 oXq.3 ;Xv.1 <XL x c.:.1 g.*X+ J.j IXN 9 O.;.;.( ;.7.L ;X",
"R.>.X G.F.X U J.+ U 2X^ 0 ,XfXJ.K b.N $ K qX2Xs :XVXPX7X).& 2X&XX MXz.rXqX& 6.gXv.v 9.R.< fXKX# r &.].q & Y eX+Xa ].'.aX_.@ n.gX",
"O.Z.6.H s.L 3 rXw & X.:X).$XB.k.X.T.Z ; x s J.2X5XK.~.D.0XD xXz.7.R.0 fXnX9 r.G.Q.~.V.E.4 a.!.= c ; 2X..D.o.C.CXOXoX>.jX4Xe v.G.",
"_ -.w r >XK.  & -  .;.L V.^ 0 : S $ v & M p 5.VXU & & I 2XXXV e 9.1X* a.c Y.r.).nXq.J 3 =.i c b Q W 9 -XxX_.e N.FXa [ $.i Y.9.OX",
"].,.k ^ } _.g r O.:.r 9 y K.cX3 - l.T $ M.9 #._ X g _ r M 4Xl W.x.%X9.G.e.T.D g.;Xa n.g.^ ~ a.V M.o.g K Z.oX| =.[.[.$.+Xk.h.f O.",
"0Xp 5XuX~ @.T oX .0X2.1 k T.xXv C fXa.* ^ f O.2.. ^ :.U U <X1.A.yXj D w.n %.S = p X.x.oX%Xf.J.>X9.4XR ,XoXsXvX(.^.% q.l.{ 6X` @ ",
"X.z.=.:.`.g z J.2...M.k.S.3 G 6.> R w 7.>X#XE v q i e q f U u.=XbX*.> F.J.c s.- / oXOXXXF.+ 8 i.H fX- k sXOX; f (.f ,./.` 6X(.( ",
"Z.#.@.$.#X1.~ _ g = > o.fXd # t.4.= ) =.H.5X<.1 d &X0 C.P f -. .o.w 0 l.M.= t.t.( s c.7.4.n & x 4.: B.; 1Xc.& $ q (.iX&X| $ %.OX",
"T s.KX:XP  .a <X.X# T 6 S.@ 5.c +X5.R @.w l.e @ j B.& 5Xm.u.W.:.aXP $ _.* V S 4.mX-X& # 4.6.s.u.Y.lX5 @ q H 1 9 = = *.,.K & ` :X",
"|.v A.;X;.=.b.VXI J.0X@ 0.h.3 4.K 5.V @ a ^ 5X<Xh 0 q C w s oX%X*X0 Y yXn v v q VXZ.6.s.F.1 +.8.h.x.e q 0 a.$ m 1 * z./.p q (.'.",
":X( w }.-.:.;.d ; y.g.& x @.& n t.F ` @ $ (.MXW.k.F *XP  .] ] O.T & E 8.$ *Xz.c 9 4.T.J OXe x.7.%.| * ( f x.| K Q.;. X;X,X^.(.=X",
"'.* e uX<XJ.sX/.d o.@ F X.@._._.# J.qX0 w %.,XT n J.h.0X;Xf :.P =.;.K.u + l.v e s.F.f.1X@X^.x @.(.S g FX(.& c | kXSX`.yX@XSX@X{ ",
"HX) _.:.L 5X:X{ _.uX: h.e 4.KXI @ 4 8.r *.9 b.V.; K z.R @ T T / -.-.l.*.0.% v.q.w.%X/.{ f _.=.k.b.* %.Z.D ; 1 q aXSXj.6X6Xj.x.] ",
"e.v ;X .=.qX,.4 -.0X^ @ >Xx s t | @.- T $.@.4XR &.` 8Xs.G.; s ].>.cXd oXx.= g.F.9._.X.g S ,X9XU.b.9X;.` v r.c ~ 5XO.q ~ 6X@X~ f.",
"<X9 NXC.;XpX( v P ;X^ < fXg Z.X.;._.g.>X* b 9.; a.wXFXU.i.( i b.k.v.[ z.F +.g F.V P l.$ 1 S ; # $.f.f.b.Q.9.5.9.fX3 X ] ~ %.B.4.",
"q ; O.= v._.z.Y 2.pXg w.S s zX .f w r NXM.X X e O.[ ZX+.& :.:.&XM.X g ^ U w E , k 0 k t 2 &.} k.= & q b.4.@ ; e | r AXJ.& %XgX~ ",
"X E : N 9X} A.M c.k w z fX[ = S.=X% . K.1.; y P ) & 2 5 9.N N J.M v <.8Xk R I w L e Z.F.z F 4Xc & [ t s.& > k.7X~ l VXeXi %.'..X",
"q 8X*.` ;.R MX:Xz &XS jXGX/ b.iXd # 5.b u.g.BXo.wX:XX O.k.@ ; z.w 1.d.g h C.h 1X>Xu 4 S 0 ;.*X<Xq x _ wX[ h $.$X( k.^.Z.(.aX.X7X",
"^ O.).f [ U ^ t e fX3 @XFX/.+ v 0 8 =.R 5.M S.~ g.E H _.` N _ @.D %Xi $ M.w {.:Xx.S.v r { /.p 0X;XX oX]. X9X9 s &.P 4X~ OXwXuX9X"
};
