/* XPM */
static char *_dc9d14a3ea44a08e604b1fa969ca25a2d9N8JFxNuJ1f26G[] = {
/* columns rows colors chars-per-pixel */
"64 64 48 1 ",
"  c #0F250F",
". c #11240F",
"X c #11280F",
"o c #142611",
"O c #192514",
"+ c #152C13",
"@ c #192E16",
"# c #1B2E19",
"$ c #163115",
"% c #193316",
"& c #1A3517",
"* c #1C3717",
"= c #1B3817",
"- c #1B3319",
"; c #1C3218",
": c #1C3219",
"> c #1B3418",
", c #1D361A",
"< c #1F301D",
"1 c #1F371E",
"2 c #1B3919",
"3 c #1D3918",
"4 c #1F3C1B",
"5 c #1F391C",
"6 c #1E3B1D",
"7 c #212E1D",
"8 c #203417",
"9 c #20341B",
"0 c #22311D",
"q c #21371E",
"w c #20381B",
"e c #203D1B",
"r c #233B1D",
"t c #24391F",
"y c #233D1E",
"u c #223520",
"i c #2A3523",
"p c #243C21",
"a c #253D21",
"s c #2B3C23",
"d c #23421D",
"f c #26481E",
"g c #254221",
"h c #294222",
"j c #284824",
"k c #2D442A",
"l c #2F4929",
"z c #314B2A",
/* pixels */
",w%,%%34&,&&--$+&+++%:+++,yy>>+@+-@w=+%1::,w*,$+@,>+%+-+:$>>>%3,",
",,,,&:&&$3e%+@%,y>+@,-5++++@+>,:#9+-++%>:@,@&,++@+%>$&%r53$3%%>+",
":+>,%>&$+%3>:%-@%+5:p#:+%%%++++-+>%%+&&%@%,%4&++@++$++:+->o5,5>,",
",::+@@++++&r-::+++@35,+,,%>,@o%>>>@,2&$%+-%35%%9-O,+3@:-:11-+-,%",
"9+-1<+@o++$>@>&+++,+-r-++$%3>+:,+%O$>%,++&$+%+:+++@@+%+%y,51#+9:",
"rt,%q,r+%>,%@@&&%++35@%,&>$$%%%+$-,>:O+->g%++:@3++O@%&&,r5:q:519",
"rp@+>+r#+@+++$$%&$$>q%g&>+%2@,:$&%@>::>>+@+@:,o++-+o3%&4y>y:1+&k",
"yq%@q#,+#%@9@+%%=&2g1,d5>3$@-@9,&++p%+>1o#+poo9-.+-%-%4dwwg+>r:y",
"ey%#+9++k+or++@@$$$+@@@$+%3&&@,3%t>,%+%-:1--<O#,+@%+rpf4y,q333,,",
"y3-#:&++++@%$@->5+&$@:&2&3->3,,r&,>%&+++++++>#>+@1%++344>3>3$&3y",
",y,@%q:++@=r+++++>$>%%d5+&$%&&:-,,&*$%:,++o5%>@,.@:@+3&dy++&q:&e",
"&d3%%%++,>4$$%@@++++@++1@1%>,,%@->%3%&%,>+@@@:+-u::@>-,d&$+>9q3&",
"w33:@3%%&&3&&@@+,%&,%-1:51-+q%,@@O@++++$2@$3@%@,#r+&3>%2+%=3%q>,",
"e3,o%+$,&+%X:%o@o@+%$>,111+>#99+,1pO,+@>-+:@$+@%rpq3&*@:@3339y$,",
",3,%+--y$%@9+,@%-+&$&wy5wqq>1qrs::1%w++-@1%:&>+rwr,y,&4%,,=1s07r",
"3=w@13-@-q+:O@+ooo>%&4w3y#1-@zrq++3-y1+@+-@9%3,,>,33333%=3&>%q::",
"33:+%+o#+,#o#1++-3r:y4dwd+%3,&dt%1%0@+u%+3,r&,%-,333&$&$:4$$-q,,",
":%,+++5-1:q#-+o--+O,f43,q3333rey3+%,++r%+$+r5%,%%&&$e43+@+++>3@-",
"+43%%&++o@%+2%O->++w&d3$>3+>34w4-:%,%@+-35%%,%,+$%&&&g4%g3>&3+-r",
",,>&%,%+o,+3@,+@,:@+343%+$r@w3,e,:%:@+$@5@,,=r+++@&+&%,O$y+%%:+%",
",q++%>4%+::@+@qr:@>>%d>+$>,py>,43%%3+++3oqw,=:%+o-3+&+@@%%$>%>>,",
"%3r-%%&+%%+@@5:qO&=%:%@&3eO:$,344@:$&&$+:#%:%,$@++%%&,+,g4$2:%%%",
"-+,%:5>%9@&>+@tp,y,%,@:3=,tr@,w3,++$%%=3@@,%3=$+++X>+%%+->+3%r>5",
"%1##+:+,%w%&+131r33342&w35pu9,333%@++2$$%+q%y&>@9#+,+1@%-1,1+-5%",
"t++1ro>o+,,,w-,,33>$3$=3$%%1@:3=*,++-&5++%$%%+,@X%o-+%$$,rr11+##",
"9:p%q:w,+33&,-&e2$y2,%@>%$,r::,%,%@+,,+-+r,&+:o,+#+O,$&,,r5-:5-q",
"pt:O>%w@+%5%,&%&$$&y3+>+++&::%-&3%$.%<>>$+-%@9o%++-o&%&%y3y9:-%h",
"3t:O,q@-+-:-%:-&++&3&3+%&=2%+q@5$$+,+-#%1O+p#+::oo-%@-&4f:g%>,9y",
"4y%--9@+p1o:#O+++%$&%+>&d5+++,>3&>@,++$+:,:-:O#:@+++1rhd4r,5333>",
"yy%#1&+++++-p<%o@%$+&+@@@++$3&+$o@r:++++++%+@-,++-5++%343,>>$>er",
"3r,<+q:%+:5+,:$O->3+&+-1,3>3:>5%*@+@%%:,%++-,$%-@o,:+,%dg%+,,%,3",
">e4%:>+@:%-@=r+++++&+>%%y3+>++&&,+,++%$>,%+%+@%#:q@@>@533$+&-tw=",
",w4,@*&>+%,>4$$,@@++$+@++1-,%,,>%#:++>+$>%%>:@@:@p%%3$3&-+&4%,5>",
"w=3+@$>+X&,&3&%@@Or:&-%,r:r><+q%,+@##++X++@@$+@@,p9,3%:#:-24tr%%",
"y3,:++-%$3%+%o:-oOoO@&$%5r1q+,<99%,,p@q+@%::&3+#yr,3y%=%,:e%pi7-",
"333,@@$--y+@@,+-+--+&$%e55wq1->trs@@>+w++:+9,,,%52q4>44>&3&>><:%",
",w*:+513@+-qo:O@oo+o,%&4y3g@5:%l9q++5-w:+@@,3%,&%33&>&&$%e&+%1:,",
",+*>+o&@o#+:-o#5++->p,d4ywy+&3:&ft%q@0@+p+oy3,,&:&&$34>@++++&>9@",
",>=&+++%,@,#q7-+o,%++3f3,,15333ryw3+%%++1%+@@>,%,&$$%332+++&>%@%",
"%53$$%%%++o,$+>%O:>++w&f3$&3@&34w3-#%,%++,%g9:+@@++o+&3>$,2&$%+,",
"+$+,%&%,%++>+3+,@#,:--54,%++r@33&e3-%,@+$%@,+-1<+- +o$&&$$&%-++&",
"&++:++%>3%+,:%+@9y:@>>$d%+$3,pr>34&:%3$++3+-q,%q,r%@>%&@$&:O+-3y",
"+@9-3%%>%$%@++@3:t@&&&@@@>44@q$,w34+:$%&$+3,p:>+@eX:+>@%>><,5-%r",
"%5d,%q#%p+r:&-::tu,y3+>@:3=,tt@r33-++$%%=$&p>&&+r++>X%@++33&+%+,",
"+$+&@++o:+%$+,rp,qr33442&e35rq9%33r%%+@2$&>3>%&@+@+g+3%%1y&1++%$",
">+@@@-@++>$&>3p5@,33>$2%&3$+-q@:3=*,++@$+%r+%+@:++oO+%&%%y<o-+3r",
"-@:+@++-.%%&$d5yq,-+y3,@@%%$,r::,%,$@+,y+,r$+8%+>+,O+$>+d,:,5>o@",
":<o@:+.-:@:*4f:d,->r333+-+++&::%%&3$+o+5po+,q+@@oo+.%-%=dw%+$roo",
"-:#9#-++>%qpd3y,53433=2y+%=&>%+r+4$%+,+$-o@+###+yo@5-rrddr%$$:r1",
"@O$,+@Oy++-,4y,>2$%e,d4%-u%$++%,>,&,@%++:%-:#:u+o+,++%yf>3&+++++",
"+5-&#%o:9+:&4y,+%>:,,3r3:@,9%+%$$%o@,%@,++-oq+$-,or%o-@4g,&:,%++",
":%+:O#1:@%@5,y&+$>qt&34e%%,+++++%+:O+,%&>%+@&%>@O::*@:5343%$&3,+",
">-@%:%t:@&&3%>+&4,-r%w34,@%2$$+>,,:,++$%3>+%r+%+:1yO%%,&5+%>$%&%",
":$+@%:rp*w%*#:-3=qq,%w=3++$$%&$$,&&3->-$%%+%++@:-q9@&&:@%%%+%>%@",
"%>3$+p,,w33=&&,3>ri7#p*,%@+>&$=5g>$j>$+>>-r:$3>#rrp,d%%%:,>>>+-,",
"9,%r>5&,4%34>&3&&--:%,3&,++-%$$&+-gyy>>$O+%,,$&+r>qy%y44&,+%>*@@",
",r%,%%=y=3&$%@w&+-1:,,w*,%+-,&+&$-33++%23&::r%r,>&r3%r++>+$3$>3,",
"%,,,>:&&$&43:+-++%>:@1+&,+o@+%>%%%3,>23,3>r:y&,,%33&%::::+%%:%%$",
"%+5%-%%$+%3&4+++&2%%%,%4&++@+++++:y3+%>9,&3r&r->3$$$,,g9@%%:,,%y",
"%@@%#:1:++$3%%&2&$%+:%35%%9#+,+3@:d&+$>9r&23d%-,%++++%+p++%$&3%+",
">-%@:@p@%&%&&+$,%>++&++%+-+++@@+%+-+&3,-r%w343@%3$$+>,5,++%>$>$%",
"@%+@@,pq,3>%+>>,O+@&h%++,@3o@O@%&>:%349q,$w23%+&+&&&$%1+p3%+>>+@",
":&3+@yr,3y&%+>&-%:3&$+@:,+,,&$%>@&&,3>ri9#p*,%@+>%&=4g#rd>>>%$::",
"9,&w%52,3>34%$$+,%33&%9@ogg>%+>>-r&4&&>-:%,3*,++-%$+=+-+%,+%%%%+"
};
