/* XPM */
static char *_f834c94c85b4d51cfcf8c34a569d090lHRW0dEWLAn23PWw[] = {
/* columns rows colors chars-per-pixel */
"64 64 159 2 ",
"   c #050507",
".  c #070709",
"X  c #0B0B0D",
"o  c #0E0E11",
"O  c #121215",
"+  c #16161A",
"@  c #19191D",
"#  c #1D1D22",
"$  c #222226",
"%  c #25252A",
"&  c #2A2A2D",
"*  c #272731",
"=  c #2B2B34",
"-  c #2E2E39",
";  c #323235",
":  c #33333C",
">  c #39393F",
",  c #363642",
"<  c #3B3B44",
"1  c #3D3D4B",
"2  c #3F3F50",
"3  c #414147",
"4  c #43434C",
"5  c #49494E",
"6  c #444454",
"7  c #4B4B54",
"8  c #464659",
"9  c #4C4C5C",
"0  c #525256",
"q  c #52525D",
"w  c #5B5B5E",
"e  c #4E4E61",
"r  c #555566",
"t  c #545467",
"y  c #555567",
"u  c #545466",
"i  c #565666",
"p  c #575766",
"a  c #575767",
"s  c #555565",
"d  c #545463",
"f  c #585864",
"g  c #595965",
"h  c #585866",
"j  c #585867",
"k  c #595967",
"l  c #5A5A66",
"z  c #5B5B67",
"x  c #5F5F66",
"c  c #5A5A65",
"v  c #555568",
"b  c #545469",
"n  c #575768",
"m  c #565669",
"M  c #56566A",
"N  c #565669",
"B  c #595969",
"V  c #59596A",
"C  c #58586B",
"Z  c #59596B",
"A  c #5A5A6A",
"S  c #5B5B6A",
"D  c #5A5A6B",
"F  c #5B5B6B",
"G  c #5C5C69",
"H  c #5D5D69",
"J  c #5F5F68",
"K  c #5E5E6A",
"L  c #5B5B6C",
"P  c #58586E",
"I  c #5A5A6E",
"U  c #5B5B6F",
"Y  c #5C5C6C",
"T  c #5C5C6D",
"R  c #5D5D6D",
"E  c #5E5E6C",
"W  c #5F5F6D",
"Q  c #5C5C6E",
"!  c #5D5D6F",
"~  c #5E5E6F",
"^  c #5F5F6F",
"/  c #5C5C6B",
"(  c #5E5E70",
")  c #5E5E71",
"_  c #606066",
"`  c #60606C",
"'  c #60606D",
"]  c #60606E",
"[  c #61616E",
"{  c #60606F",
"}  c #61616F",
"|  c #62626F",
" . c #62626D",
".. c #6A6A6E",
"X. c #606070",
"o. c #616170",
"O. c #616171",
"+. c #626270",
"@. c #636370",
"#. c #626271",
"$. c #636371",
"%. c #616173",
"&. c #626272",
"*. c #636373",
"=. c #646470",
"-. c #656570",
";. c #656571",
":. c #646472",
">. c #636375",
",. c #656574",
"<. c #646475",
"1. c #666675",
"2. c #676775",
"3. c #646476",
"4. c #646472",
"5. c #686874",
"6. c #696974",
"7. c #6A6A75",
"8. c #686876",
"9. c #696976",
"0. c #696977",
"q. c #6A6A76",
"w. c #6A6A75",
"e. c #656579",
"r. c #666679",
"t. c #6A6A78",
"y. c #6D6D7B",
"u. c #6F6F7A",
"i. c #6E6E7B",
"p. c #6E6E7C",
"a. c #6F6F7D",
"s. c #6D6D7A",
"d. c #707077",
"f. c #727276",
"g. c #72727F",
"h. c #74747E",
"j. c #72727D",
"k. c #7A7A7E",
"l. c #747481",
"z. c #767681",
"x. c #7A7A84",
"c. c #7B7B84",
"v. c #7F7F88",
"b. c #7E7E89",
"n. c #808086",
"m. c #82828C",
"M. c #83838B",
"N. c #89898F",
"B. c #868691",
"V. c #8A8A93",
"C. c #8C8C93",
"Z. c #8F8F98",
"A. c #8F8F98",
"S. c #919196",
"D. c #949499",
"F. c #99999D",
"G. c #9D9DA1",
"H. c #A3A3A6",
"J. c #A6A6AA",
/* pixels */
"= 3 : : , , : : < < < 3 7 0 7 @ = 0 7 4 : - - < < : : : - - = O # - * = : - : = - : < 3 : : - O # , : - : , < , : < 3 < , , - + ",
"1 %.d ! y Z ! Z L %.%.! y.V.d.+ 7 Z.x.d 7 8 9 Z ! ! u Z M e 1 o - L 8 e L L M e 9 y ( >.y y 7 o = r.Z M Z %.2.Z Z q.q.y.%.! 4 O ",
": u 9 d 6 d Z 9 9 9 9 9 y q.x @ 7 n.g , 8 8 9 d y d 9 M 9 8 6 o - e 6 9 e y 9 6 6 d d u 9 d 8 X : >.9 g ! d q g z.q.d ' ' ! 1 o ",
"- u y 8 8 d d ' ;.J ' %.y 2.J O > j.7 , 8 8 9 y y 8 9 8 8 8 1 X = e 9 e u d 6 8 e Z ! y d y 6 X - 9 9 y Z g ' y.x.q.' ' ' Z 4 O ",
": e e e 9 d ' %.J J ! t.' ! d O 3 q , y q 8 6 9 9 9 8 8 8 9 1 X = 9 9 9 M u 8 8 9 2.! q 9 8 , X - 8 7 y y %.z.m.h.q.' ;.! ! 1 O ",
"< M q d d y y.' ;.%.g ! %.L 4 O - 8 9 9 g ;.y ' %.d d 1 1 e , o = 8 8 9 9 9 9 8 e ! ! 9 6 8 1 o % 8 d g %.2.y.;.g g g y.q.%.1 O ",
"1 y 8 8 e ! ;.j.h.' ' ;.q.M 6 O % Z 9 6 y d q.c.m.j.j.%.y 9 , o = 8 2 8 e 6 2 9 9 d d d 9 J 7 + : Z Z Z g %.d 9 ! 9 q.q.d Z 1 O ",
"- e 9 1 9 ! ;.z.h.w.z.x.' d 1 o = d 6 8 9 g j.h.z.y.z.x.c.Z 1 o = M e d L 9 6 y Z 9 d d %.j.q @ < t.Z L ' ! q ;.y.d y.%.J Z , O ",
"- u y 9 9 g y.x.c.x.x.z.j.J 1 o * d 8 9 ! z.j.x.x.h.j.j.c.g 4 o - r.! Z y Z y ! ! M M Z q.n.w.+ 3 y.d %.2.' Z y.q.y ;.' %.L 1 O ",
"* , - - , < 4 7 7 4 7 0 q 7 3 + : , : < 7 3 3 4 7 7 4 7 5 < : O - 4 < < : : , , < , , < 4 0 4 @ - 7 3 4 3 < < < : 1 3 < < , = O ",
"X   . . . . X O X X X X X X X O + . X X X . o o X . X X . X . . o X X . . . X X . . X X X . X o O . .   . X X o o X . X X . . . ",
"1 1 8 9 9 g g @ :  . .w.w.w.w.x w.' q q J x x @ = q.' w.n.j.j.j.j.;.g  .;.g 9 O $ 6 4 4 J w.d.c.n.d.w.w.j.J f @ ; J ' J d d 9 4 ",
"u u ( >.! t.J O 3 b.x.V.z.j.j.j.x.w.2.q.c.l.d O 3 m.y.F.A.x.z.q.x.x.h.x.z.y.d o % d Z y ' y.M.A.C.c.c.V.A.n.w.+ < b.z.y.%.( ( u ",
"9 9 ! ! q 2.f + 3 z.x.j.' w.j.g x ` g j.q.y.f O 3 j.h.C.x.h. .8 q h.j.j.y.q.9 o % Z y d 9 6  .j.w.j.` q j.M. .+ : j.w.J Z ! d 9 ",
"e 9 Z y d q.f + 3 m.x.w.;.' w.7 ' j.;.h.j.x.f O 4 b.x.C.N.h.h.d J x.c.x.q.;.q X = L 9 d 9 4 q  .q.q.y q g c. .+ 4 b.y.J ! ( Z 9 ",
"e 8 9 d ! q.q + > m.w.' d d ;.z.x.y.' y.x.j.q + 3 z.M.S.h.x.x.g ' b.c.z.q.%.7 X * u 9 ! 9 9 9 y.z.d y d ! z.` + 3 x.J ! ! ! 9 8 ",
"8 8 M y Z q.q + < x.z.;.q.z.m.x.w.' ! q.q.;.7 O < V.M.N.q.j.;.9 9 y.j.j.j.J 7 X = u 9 d y 9 9 q.w.y y d g y.w.+ 3 z.' 2.J 2.9 6 ",
"y ! 2.Z y q.q + 4 b.j.h.y.' J d 9 9 y g J ' q O 3 n.x.z.J 9 9 7 y d d j. .J 7 o - u 8 y ! d 9 Z 2.g 9 9 q q.x + < x.j.t.J Z y d ",
"q.2.%.d d t.q + 3 m.j.j.J d d 9 9 M y y J y.x O 4 M.' w.J 4 9 ! d y d y.y.;.7 o * 9 9 >.Z u 6 ! g 9 8 9 y ! f O 4 z.g t.;.' J %.",
"! g Z y q q.' + 4 m.j.j.J g 9 d d y M Z ! ;.d O 7 m.w.;.;.g Z y 9 y Z y.z.' 7 X = 9 u Z g 6 9 9 9 y d d d d 6 + : g d y d 9 d ;.",
"# # # # # & % O % & & $ $ # + # # # # $ # # $ + % & & & % $ $ # # @ $ & & $ $ X @ # # # # @ + @ $ # # + + # # X @ # # # @ @ $ $ ",
"+ # # # # # $ % # $ # # # @ # o O # @ # @ + # $ # + + + # @ # X + % $ $ # @ @ + + + @ # @ + @ o o @ + + # @ @ % # $ $ @ @ @ + X ",
", t.q.%.q.z.x.m.b.x.w.j.j.Z 7 O : r.! u M Z y.j.! d 8 1 g g g o 4 M.y.z.h.;.Z ! Z %.t.%.d d 4 O - 9 e ! x.c.A.D.N.V.V.c.x.;.8 + ",
"< y.y.j.t.y.h.j.x.j.w.w.;.g 4 o : t.y 9 9 7 q.2.9 9 2 8 1 1 , o 4 c.y.w.j.j.h.h.x.m.q.d 9 9 - X % d 9 y q.c.V.A.C.D.D.N.c.b.d o ",
"7 B.x.z.y.z.c.m.h.w.y.j.' g 7 o : %.y 9 9 9 ' ' 9 8 8 8 6 9 1 O 3 z.j.q.q.c.c.M.D.N.h.y.q.Z 7 O < 2.g ' j.n.D.G.F.F.D.A.M.M. .@ ",
"7 V.w.j.y.y.z.h.z.z.j.y.J d 1 o - L J 9 d d Z d w.y.9 8 1 e 9 O < j.j.j.w.h.c.c.n.S.S.M.C.C.d.@ w C.M.x.M.J.G.D.H.F.C.C.C.A...@ ",
"q M.w.y.q.j.x.;.j.c.x.q.J y 6 o : M y %.%.2.d J m.w.9 y d t.` + 3 n.j.z.J j.n.c.V.F.S.N.S.G.k.@ 0 F.C.G.G.J.G.G.F.S.C.C.N.D...@ ",
"5 M.n.c.c.h.j.j.z.x.c.c.' Z 8 o - Z u g Z ' y.q.' 9 7 ' ' q.c O 4 c.j.z.z.c.c.c.S.C.N.N.N.F.k.@ 0 H.F.G.F.D.C.M.M.n.n.D.S.V.w.@ ",
"3 A.k.x.x.c.w.j.h.j.x.h.;.;.8 X - Z d 2.q.' g 9 d j.t.9 8 q.q O 4 m.x.h.h.h.c.V.V.w.j.N.C.F.k.+ 0 F.C.S.C.S.y. .j.j.c.S.S.V...@ ",
"c A.x.n.x.h.j.;.q.b.z.w.q.%.6 o - L Z t.j.%.;.J q.! 9 9 8 L 9 O 4 B.j.y.;.y.j.' d 9 ;.M.N.V...+ 0 J.D.G.D.n.q.J w.c.D.S.c.C.w.@ ",
"7 w.`  .` _ x f q  .x q 7 6 , O - 9 4 9 q 7 7 f g - , 1 1 6 4 @ 4 w.4 4 q 9 , , 1 7 9 d x q < O 3 w.w.f...f d 4 9 ` .. .x w._ $ ",
"@ @ + O O + + + O O + O o o O X o o X o O o O + o X O O O o + X + + X o O O O O O + O O X X O . O O + O O @ + O o + + O + + @ O ",
"< 4 5 4 5 4 3 + & 5 < 3 < - - : : < : : , < = o # = = : < - < 7 < % : < 3 < : X % 3 < < 4 3 : 3 < : < < 4 3 < O $ 3 < 7 3 7 5 : ",
"%.x.S.D.m.V.w.O 5 m.z.z.;.Z Z Z r.y.! %.2.2.7 o = M e Z L d %.x.;.9 t.q.z.j.q X 3 z.z.j.n.x.j.B.z.q.j.q.x.z.7 o = %.y.x.b.b.q.d ",
"d d  .A.C.V.x O : j.j.q.! d 9 y Z Z y ! %.' 6 X - Z 9 9 8 d 9 e d Z d y q.x.q O : %.q.y.! ' y.j.x J ;.' Z Z , o * 8 ! j.x.q.q 9 ",
"d g ! ;.w.y.f + : q.y.y.J Z Z y y d d ;.;.9 , X = M e 9 9 9 9 M ! y J q.` y.f o = ! q.j.;.J 2.d ! ;.j.2.y g q O - 9 %.V.j.J 9 y ",
"y y J d ` j.f O 3 y.j.y.' q d y Z y d %.! 9 1 X = ( 9 8 e e y Z Z y %.' J x.` O 3 %.' j.%.t.;.Z J ;.z.q.y y.d O : 9 ! b.j.d 9 y ",
"y d 9 g ' j. .+ 3 b.t.' ` d 9 y q g %.2.! 9 1 o = u 9 e u 9 y g y g d q ' m. .+ 7 j.;.q.;.y.;.%.q.y.j.;.' z.q o : y 9 %.;.Z Z y ",
"8 d y ' ;.c.w.O 7 V.x.j.%.J 9 y d Z ! ! d 9 4 X = M 6 9 9 9 9 9 9 ! ' ' y.n. .+ 5 q.J q.;.;.' q.x.j.y.q.l.z.q X - %.d y d q y d ",
"8 9 d %.y.V...O 7 N.n.A.x.9 d 9 y ! ! 9 9 e 1 X - d 6 u u u d 9 y ! d y d j.x + 7 ;.Z q.;.' J M.n.J q.z.x.q.7 X = >.J d 9 u d 9 ",
"9 9 y q.h.A.w.O 5 D.M.c.n.n.j.d d J ! u 9 M 6 X % 9 u C u e L ! M d d d d ' x + 7 ;.J y.j.t.q.z.h.z.z.y.j.j.7 o : r.%.Z L L u 9 ",
": : < 4 7 q 7 + 3 _ q 0 f w 5 4 : , < : - , - o % , : : - : , 1 , : - : 1 4 < + : < < 7 4 3 4 < < 7 7 < 3 7 < + ; 6 < 1 , , , - ",
". . X X . X o o + o X o O X X X . . . . . . X o o . . . . . X X X . X X X X X X X . . X . X X X X . X X o X X X X . . . . . . X ",
": d 6 7 4 ' x...d.h.c.k.c.n.c @ - J g 6 1 9 g J J d 9 8 9 9 6 + $ 9 9 8 9 9 7 , 4 9 g q w.j.g + - Z x f g d 7 7 q q 6 9 y d 4 + ",
", ( y y y j.S.N.c.N.F.C.V.G.h.+ 4 V.n.! %.y.y.t.2.%.L u 9 b 6 o : L d d 9 d d 8 y ! ' j.m.M.J o < z.q.y.j.q.' J %.Z Z ! >.%.6 O ",
", Z q q q z.C.c.x.M.c.S.n.V.d.+ 4 D.M.n.n.j.J J ;.Z d 9 8 e 6 o = 9 e e d J ! q J %. .c.c.x.7 O : J J h.h.j.y.J ! J g y d Z 6 O ",
": Z q ! %.w.M.c.n.x.h.F.F.C...O 0 A.x.M.c.h.q.;.! ! y d u L 6 X - ( 9 M Z %.y.y.j.q.x.n.n.n.q o > %. .;.;.j.! 9 y Z Z d y ! 6 O ",
"- Z y ;.y.d ' c.V.c.M.G.S.S.d.+ w M.j.x.j.x.h.j.q.%.y d 9 d , X - 9 9 ! ! %.q.;.y.z.z.x.n.c.q O 4 b.x.n.j.;.! 9 9 9 u 9 d Z 7 O ",
"- Z y Z 9 9 ' w.x.M.A.n.N.A.h.@ 0 A.d.x.h.c.x.j.j.! g y 9 9 1 X = 9 y %.q.Z ' ' q.y.c.b.z.x.` @ 7 C.S.A.y.Z Z y y d 9 9 M %.6 o ",
"= M d y y u Z y z.c.x.n.N.V.d.+ 0 A.w.x.h.c.c.h.y.%.Z ! d 8 1 X = u 9 %.d d q.q.q.j.M.w.x n...@ 7 D.D.c.;.g J %.! ! d d %.Z 1 o ",
"- u d ! Z q d 9 ' ;.j.n.S.n.x + 4 x.c.n.z.x.M.c.w.;.Z Z 9 9 1 X % d u J q ' ;.2.z.c.w.w.w.n...@ 0 J.S.M.y.d ' ' Z d d y ;.Z , o ",
"- 9 9 9 9 9 9 9 9 d w.j.n.w.q + 4 b.c.c.x.h.n.j.;.;.! y 9 e 1 o = e Z d Z g Z z.z.x J w.w.c.d.@ w H.C.S.w.d Z J Z d ! l.;.9 , O ",
"+ + + # $ # # # # @ $ & & # $ O $ = & ; % & & % % $ # @ # + # X + # # # $ # # = $ # $ # % & ; @ ; ; ; ; % # # % $ # $ % # # @ X ",
"# # # @ O O # o O @ @ @ @ $ @ $ % $ % $ @ $ & O + # # @ O O + + O + + @ O @ # X O @ @ # @ % & & % % & % & $ @ o o @ # # @ @ @ + ",
"y.%.2.Z d >.Z O : 2.! j.x.j.j.q.c.n.h.h.z.M.h.@ 3 y.( e 8 e u e 8 9 M M u >.9 o : Z %.y.b.D.D.C.C.N.D.D.D.h.q O : %.y.;.Z 2.2.! ",
";.y y g d l.q X - 2.! g q g ;.;.w.h.c.h.z.c.f O 3 z.d 9 8 e 9 8 8 9 u y M ( 1 X = d J z.N.D.S.G.D.N.C.S.C.h.< o : %.y.' Z ;.%.%.",
"2.d y ! Z ;.q o : 2.' d q q ' q.;.h.h.b.c.b. .@ < y.d 9 8 9 9 8 8 6 e d e u 4 o = d ! ' y.c.n.C.n.M.M.C.A.w.4 o - Z ;.;.2.2.Z 2.",
"' J J d 9 d 3 o : %.d 9 Z ;.y.;.y.j.x.m.x.b.w.@ : ! y y 6 6 8 6 6 8 e u 9 e 4 o * Z y u y d ' x.j.h.c.C.C.M.7 X = ' ' g t.! ! %.",
"9 y 9 8 9 u 6 O : %.J d J j.y.j.y.j.x.c.x.x.` o - Z Z d 9 e e 8 9 e d 9 9 L 6 X = L d 9 u 9 d y g  .q.M.M.n.x o : z.' %.2.! y d ",
"8 8 9 9 8 L 8 o = d ' J ! y.j.y.j.j.y.x.z.;.7 o = Z y d M u e 9 9 8 9 9 9 M 1 X - y d y Z e 9 9 9 q.q.J h.c._ + 3 z.' y.t.;.y 6 ",
"9 d y 9 9 %.4 X = ( 2.;.' ;.h.x.M.h.y.h.j.y.f O < 2.Z M e e 9 8 e 6 8 e 9 e , o * M 9 ! Z 9 y y 9 y J J J y.f O < y.y.y.;.Z 9 1 ",
"( e d d Z %.6 X : %.' x.x.j.B.V.D.n.z.x.j.y.q O : ! u Z C 9 9 e 9 8 e e u u 1 X * L ! Z u M y e 9 y 9 2.2.y.x o < z.y.2.g d 9 y ",
"7 1 1 6 7 6 , O - 8 7 f ` f  . .` _ ` x f q < O : 7 1 6 4 1 , , , , 1 , 1 1 : O % 4 9 d 1 6 4 , 4 4 4 6 7 d 7 + < q 7 7 7 4 6 9 ",
"O + O + O O O X O O + + @ @ @ @ @ @ @ @ + O O O + + O O O o o o o o o o O O + o O O @ + O O O O O O + O O O + O @ + + + @ O O O "
};
