/* XPM */
static char *_c3207f02d8f41129546710e751d3462dL0nUoagitx8zzBl[] = {
/* columns rows colors chars-per-pixel */
"64 64 175 2 ",
"   c #0D4F07",
".  c #074E0A",
"X  c #094D0A",
"o  c #075402",
"O  c #0C5503",
"+  c #0E5B04",
"@  c #0D550B",
"#  c #0F590B",
"$  c #105606",
"%  c #125C05",
"&  c #1A5E07",
"*  c #11560C",
"=  c #135C0C",
"-  c #185E0E",
";  c #0D5313",
":  c #0F5911",
">  c #125613",
",  c #195714",
"<  c #145C12",
"1  c #195E13",
"2  c #10561A",
"3  c #155C1A",
"4  c #195E19",
"5  c #156205",
"6  c #1B6503",
"7  c #156A05",
"8  c #1D6904",
"9  c #16610C",
"0  c #1A640C",
"q  c #17680B",
"w  c #1D6A0D",
"e  c #1E700E",
"r  c #166212",
"t  c #1B6413",
"y  c #166A12",
"u  c #1D6A13",
"i  c #156318",
"p  c #1C641A",
"a  c #1E6A1A",
"s  c #1D7214",
"d  c #226D05",
"f  c #20660D",
"g  c #236D0C",
"h  c #286F0F",
"j  c #247204",
"k  c #297506",
"l  c #2C7A03",
"z  c #25720C",
"x  c #2A750C",
"c  c #2D7A0C",
"v  c #307E07",
"b  c #317D0C",
"n  c #226615",
"m  c #226C13",
"M  c #296D15",
"N  c #22661B",
"B  c #236C1A",
"V  c #286F1F",
"C  c #257114",
"Z  c #2B7513",
"A  c #2D7A13",
"S  c #25721A",
"D  c #2B741A",
"F  c #277819",
"G  c #2D791A",
"H  c #327D13",
"J  c #30771B",
"K  c #337D1A",
"L  c #1F6B20",
"P  c #246B22",
"I  c #2D7423",
"U  c #2E7B20",
"Y  c #327C22",
"T  c #2E8106",
"R  c #358407",
"E  c #34820D",
"W  c #39850D",
"Q  c #37880C",
"!  c #3A8A0E",
"~  c #2B8116",
"^  c #358213",
"/  c #398515",
"(  c #378812",
")  c #3C8A15",
"_  c #358019",
"`  c #378219",
"'  c #36811A",
"]  c #37821B",
"[  c #36831B",
"{  c #35821A",
"}  c #3A831A",
"|  c #388619",
" . c #38831E",
".. c #38851D",
"X. c #3A851C",
"o. c #3B861D",
"O. c #39841F",
"+. c #3E871E",
"@. c #3A851B",
"#. c #3F8C1A",
"$. c #3F8E1B",
"%. c #3B881E",
"&. c #3B8A1F",
"*. c #3D891C",
"=. c #3F881C",
"-. c #3D881F",
";. c #3F8B1F",
":. c #3F8C1C",
">. c #3D8A1C",
",. c #368222",
"<. c #398020",
"1. c #3B8723",
"2. c #3C8720",
"3. c #3C8623",
"4. c #3D8424",
"5. c #3B8522",
"6. c #3E8922",
"7. c #3F8D20",
"8. c #3F8C22",
"9. c #3E8B25",
"0. c #3E8A23",
"q. c #3F8628",
"w. c #3A8329",
"e. c #3D8A2A",
"r. c #3E8A2D",
"t. c #3E8D31",
"y. c #418F15",
"u. c #408D1B",
"i. c #418E1A",
"p. c #418A1F",
"a. c #408D1D",
"s. c #418E1C",
"d. c #418E1B",
"f. c #409013",
"g. c #419116",
"h. c #439216",
"j. c #43901E",
"k. c #44931C",
"l. c #49971E",
"z. c #4B9A1D",
"x. c #418724",
"c. c #418D20",
"v. c #438F22",
"b. c #458F20",
"n. c #468F23",
"m. c #408B24",
"M. c #428D23",
"N. c #418D29",
"B. c #459124",
"V. c #459323",
"C. c #499624",
"Z. c #479B21",
"A. c #4A9820",
"S. c #4D9A26",
"D. c #4E9B27",
"F. c #4D9D24",
"G. c #4E9E25",
"H. c #4C9B24",
"J. c #47922D",
"K. c #45922A",
"L. c #499528",
"P. c #499529",
"I. c #4A982B",
"U. c #4E9C2C",
"Y. c #4C9A2A",
"T. c #519F26",
"R. c #509F2A",
"E. c #519D2B",
"W. c #499530",
"Q. c #519C33",
"!. c #51A124",
"~. c #59A527",
"^. c #54A22B",
"/. c #5AA92A",
"(. c #56A336",
/* pixels */
"x J C d p.q.@ 4 B # = = P p % w ^ x C _ _ K x b m ^ n.B @ t t ; t 0 u r = K Z g } ^ <.Z b g G n.G $ 0 m O r 3 B < = k H d K 4.K ",
"g *.*.x 3._ + @ r w r < - t * G I.H z x O.d ....Z / / 9 . > w w > + m # B J.c.d j G z c *.3.c B.m @ + r 9 0 * w 1 % 6.L.x g A o.",
"m.c j S.x 5 S u t w = < $ - * Z K j ( g K ^ ^ g A.^ g t S S = 9 < - r + m _ j ^ x K ^ ;.g ^ ) d m u g a p 9 @ @ < % _ c H H j ^ ",
"z x $.G.` 9 t w B * 9 m p 9 g S ..U.) H *.^ k ..G.9.m 5 8 8 r 3 B u O B 0 H S.i._ } b k _ R.G.x < t w p * 5 D 9 t w Z 8.I._ s./ ",
"C ) g.H D t.5 y t # u C B r C S j H ^ i.s.H A c.&.z e.B 0 B o a t C 0 t D H k _ &.f.#.A 8.) d 1.G 5 C # > S a a r B K z H ` $.j.",
"A k s.H g 9 9 = < 0 B t 0 9 < 0 ) A 6.E k._ A ) ( d 9 p t * 9 a w m % r 9 Z ^ 8.c z.) A b *.G 8 t i O < B 8 w 5 < = M ..#.^ #.B.",
"k.9.O.^ c w < 9 p w S = 0 9 * % V.^ H *.*.H B.( H ^ C < > 0 w S 9 % t i + 9.#.c ..M.x c.s._ A c 0 r 9 t S t i 0 t O D K.k ) c.<.",
"$.k } x M.} % a t O F + a = t t H C.#.Z 5 ( ^ ^ I ^ i.w < B o a t u u : t z k.k.H w Z / c K c M.M > B 9 % B r w @ B 5 *.k.( d g ",
"C H M.K H w p u * 9 * w > 9 p 0 Z C K Z  .D A ;.^ b Z t m w * = 1 , % 1 1 C C E D H H Z 0.| H A m 0 B # < 1 - $ - p n x H Z K ^ ",
"x k.W c ) K % w t t m - - < 0 D 6 | E k ^ c / ) ^ ) K t % u - B 1 r = t m m c E b H ^ v ) ^ b #.u 0 t 9 t r r - r m m z ^ H x *.",
"L.l.l.#.^ 8 0 w 9 - u < t p m Y | #.z.^ A k.!.V.B.W C t B w * B t % p u Z { #.I.i.k c.T.k.j.s.l t t r r r r t t 9 G _ | V.V.c _ ",
"K c ^ .._ 5 < t 0 = - p - * m g K | #.O.Z j c A _ ^ g @ t 9 - = - t : u z x ) 6.6.c d A A ) &.C * r - 9 = - t @ t w j K M.) E A ",
"C c c 1.Z t > p t t * u . O 0 z H 8 8 c H K A ^ H ) 6 > - u t r r < @ - w ^ z 8 g H A K H k _ C * t t u t 0 r @ @ 5 ..Z 8 8 b A ",
"K i.^ _ k 0 < - t w > 0 > u = G #.k ..E k A H k.A ^ 6 < r 9 t = t @ u * t L.Z H ( H Z b i.H 6.6 r - - t t $ = = B % 4.A H } ^ x ",
"H l.^ H L.K t t t u - 0 p B % S c I.| ^ c.H ;.) H $.4.p t 0 B t = B S t t M 6.A.c ....E l.^ ..*.S r t t B 9 t B B * C } I.} H c.",
"K ) H M.H m < - 9 t 5 t u i 0 u Z V.| Z K H ;.A c.^ Z t $ 0 9 t r w 9 5 S u V.#.A H ^  .A / ^  .t $ r 9 u 9 0 w + S m ^ H.c c ) ",
"A A b ^.m B $ 1 - * - 0 u r - C n g ) M H K H n ^.H N , = = > > w 9 p # C g g O.Z H Z K d k.V.w f * , - @ u 7 w < 8 z f H H Z } ",
"H c l z.8 C g t + B r B 0 < t w x.M.k 6 6.O.x Z j.c z S t + B w u w 9 p t c C.<.6 H 9. .d W *.w _ u 9 = a r m t 0 t g n.3.g z V.",
"g  .b k Z m t * 9 a u C 9 a 9 6 A.#.x _ K 8 c W A x g 0 t - 9 0 B z m p % $.C.g H ^ 8 g ^ b k C 0 r + r a u C u C ; _ !.D Z E x ",
"K  .B.B.K 5 9 t u = r w 9 p r G E c m G. .c _ f.n.x.n = t & m 1 w O r = D A H x *.L.x | s.$.B.z & t - B - 9 5 + 9 p k l S _ !.A ",
"^ C.V.$.) 8.0 9 a t = 9 = # t K H _ K T.c ^ 9.I.Z.T 8.C + e w : % u < 9 C  .6.x Y.^ &.H V.U.^ *.~ 5 y u t - n , t t *.^ G &.k.H ",
"d j x x V.W.t 0 C t < = t t - g K A d ^ } ^ 8 A x W G.U > t B # < t * a = ^ c m H _ 3.d c d _ C.1.= 0 u < - = p - 9 g ^ k z  .u.",
"g o.4.g ;.G o @ q = < * t P $ C P.x k A H x } 9.M b u.= X 1 - 1 4 = I > t B.( g c K Z k c.x z C.m   $ t = t + B B + ,.V.j A H H ",
"o.b H 9.l A B t 0 a < - $ * $ K #.c b n 4.Z ) k N.E c a t 7 w t = * @ = w 6.H H g A K } x 4...l z t u 9 p 1 O , @ r .._ K x d 4.",
"K c b (.l + a y n 9 - y - w 0 w ^ *.| ^ _ _ x A ^.` 5 9 w B p - t u - u 0 G _ *...^ E H M s.^.w + m B u - t t - u = G ^ ! ^ _ ^ ",
"x ) B.*.` { = S r $ 5 B s 1 w Y H s.b s.c.A A V.k._ | a t z ; 0 w S % w Z A ( ) ^ j.*.x C.L. .( S r m # @ u P q 0 S Y H B.*.} k.",
"z c } x d Z r 9 < = B q B = t B c E #.E s.} c ^ b j G t % 9 @ B 0 u t r u Z A / ..) #.z ^ ^ d c S 9 y 9 t a S 9 0 t m A H ^ *.#.",
"M.) M.3.d % r 9 < S m 7 = u = * B.c ^ s.L.H *.#._ H % * u - B m u r < 3 o r._ ^ H U.E } 4.s.^ 5 = % # t B t 5 9 < @ G V.W c K.c.",
"x.E H z K.,.+ u r 1 C = u , r 1 ..M.} c d H 6.^ c K M.t = q 3 C 5 0 B = 0 z C.) E C Z i.H A A K.B 1 m r t B - S > t % C.) c.z d ",
"H l c.K H Z r u = 9 9 r = 1 - B Z K ..k z A x } H K H r t u # 5 0 r * < t Z c ^ Z 6 K x E N.D ^ B = m + = 0 r = = B B x } x z c ",
"j $.` c ^ g r B - 9 N 5 , + t u 8 c H x 6.x #.) | R Z 0 t p @ w < > < t t m d } A *.H x i.^ H ^ t 5 B % w 1 w @ = t m 8 ^ H H *.",
"K.V.$.s.) z u 9 u = B , u 1 F G H *.B.k c *.I.i.$.*.c w 0 t 3 z r r = m G Z s.$./ n 9.z.g.M.| W u 9 m = u m * B 1 I Z / k.*.g <.",
"*./ i.$.A 5 - p 5 * r 0 < t m D } ) !.) c ) ) 5.;. .w - 1 1 < < 0 > 0 g C ,.^ F.l.^ A *.i.s.^ Z 3 0 0 = < - t = m 8 K _ h.R._ c ",
"C Z A H <.w * - t t + r > @ 0 m x c 6 Z c 8 C c k 6.M $ 0 0 0 9 1 r @ < q j H 8 B c j g B x *.Z * 0 0 t < < r $ < w j A g 8 ^ z ",
"H ;.^ ^ C - * p r 0 0 t # - + Y ) w ,.^ G ,.c s.K K * * t - t = < O > 3 w L.d Z ..c K w.M.R ^ 0 n = r 9 u > 1 O 3 = 8.H m  .^ x ",
"A V.E ) _ Z 0 0 p C $ < u B r C b B._ H ^ j c.y.b 3.K m = w S 9 r r D 0 t H W V.c *.k c V.b #.} m t t S 0 < t D w t D E l.} k ( ",
"H V.b ( 6.A 0 w < B t t u 9 < C x Y.C.A s.E C.c ! *.K m 0 9 9 a 5 t u 6 w w Y.l.H H c.#.E #.*.^ D - t 0 B - t 0 5 t t ^ z.^ K k.",
"x c b (.g r @ @ < + 9 9 u u - C D Z c d K j b D Y.H m $ @ t > : w p 3 1 z g C ^ M H A Y x ) c.V % * < 9 $ 0 u m < u D Z b K B b ",
"Y C Z Q.6 D B t * t 0 C t * 0 m g } 3.f 3.3.Z d G.j g D w $ 9 0 q w p * M g K *.n H ) K f m.m.0 K 0 t * t 0 w 9 * B w c o.D M C.",
"k b E c x C t * 9 p u z r B 0 r ~.M.d j O.h b W c A S n - = t t s w z w * K.!.k d o.x b E b H g D % = < p g w a j < I /.W z A b ",
"A H Q ! A * t 5 9 r r B + B = z ^ K d C./ d c ( ^ ^ w $ p t w < C % u r w c ..f i.} g c ` ^ ) C + t 9 9 p t 0 p 0 t z *.C x A.k ",
"} V.G.$.0.D - 4 u B + = 0 < t ,.c 1.K E.b 6.P.U.U.` H B 0 6 m * = 0 * r D ` } D V.P._ M.V.^.6._ B r % S < - w * 0 B 1.` Z K.C.H ",
"M A K ,.&.^.d r u r = 0 t @ - C ( A g c.^ H 8 b H H ^.G % z t r - r * * m ^ H g o.H | g ^ l Y S.N.r 0 m r * 0 $ = - A ( z c ^ ..",
"j K H 8 ;.` O ; m # - - N P 0 8 ;.d A K H H _ H g _ $.0 @ t a O 1 r I - 0 ^ ^ z K H b c H k C C.g @ = w * 1 * I p 0 A ( d H ..K ",
"k o...^ | D t < 5 u t = $ t $ G L.^ c 8  .x H } } E w.a @ < u t * + - O B J.( x d H c b 9.<.E ^ g < t % B 4 @ + > O N.L.k k d 3.",
"M.C d ^.j % u C u t O 0 * < - z Z H ^ A  .^ ^ 6 z.! 9 r S q 8 * t 0 = t 9 A ^ H H ^ K ) 6 4.z.6 5 a p B < < t - t 0 A Z b ^ Z ^ ",
"j ( A.S._ S a a r * r D w r B C 3.B.) &...c c W.H.) G = u w + p u 0 + B u  .B.L.E *.1.d ;.I.V.K u 9 u = > 9 C 9 p g Z 9.U.` O.i.",
"C H ( x Z { 5 y t * B w u y u C g H ^ &.8.^ k <.Y g Q m i p : t u C w 9 S Z j ^ ) *.6.D W Q w ..F 5 C * < C 8 u t 8 A z c ^ M.) ",
"/ ^ c.u.d - 4 > + C y q < r = - i.^ *.b S.A 1.) m.j % - r @ a w w r < 1 O 3.( ) A S.) A 9.i.c 0 > t o 0 S 9 B # t . J k.( H $.B.",
"B.o.^ k O.B = 0 t r F = m p = - i.9.c #.H K V.} Z H 4.* - B < Z 9 t a = 0 K c.^ ` K Z L.( x _ K B * w r B m * B - p w C.b } } x ",
"..z *.c 8.r.= w - = t 9 t - r w A B.*.8 8 H A ^ _ b 1.m 9 r * 0 r t - 1 B g c.) c d Z H c &.A M.B 9 B * - u = t @ t w _ #._ g x ",
"d c.| c H w % C - 0 < 0 @ $ r m m j b K 6.j ^ c.H #.z 5 m t < 9 t 9 O t = D 8 W c K K z | ;.c c w w t * 9 t 0 + p 5 C g b c C *.",
"E L.^ ) ;.D t 0 t = S < = t m F z } ) c K ( ) _ ^ ( K 0 w t @ I - r 0 0 G z } ) E Z 4.#.) _ _ #.m r w r p w 1 0 * G g z ) ( x } ",
"S.#.Y.i.H t < t r * t < 1 t S G 6.c.^.} Z B.S.C.L.H m r w m @ 9 = r r m D _ ;.Y.S.x O.C.C.Y.^ c 0 - m 9 9 r t 1 B z _ N.B.R.c H ",
"d x c b ..- > t r 0 # t > % t z x E H Z c 8 g l k c.m @ = 0 < 0 0 1 . r w j A K A b j x z l #.D * 0 p = % < t * = m 8 A K l b Z ",
"O.K O.^ Z r * r t 9 9 p O * % G #.8 z ^ A ,._ ( ^ H - < 9 t p 9 0 * 2 < 8 #.j g H c ^ K O.H 3.w t > 0 t t 0 < @ * = 0.A 5 b l G ",
"A #.^ ^ c m < 9 y u - 0 1 B = F E ^ ) K c x ! #.c | g t r 5 C = 0 9 m 9 u ..l ) ^ K Z b k.^ K k 0 t - m < t % p m % &.v _ } ^ A ",
"H C.E ^ V.K 9 m r B = r t B 0 u Z Q.k.D c.} ) 1._ ;.&.m t a r w = 5 D r B 8 L.U.b *.#.) ) ) } B.Z = 0 w B % 8 u u t 0 ( ^.9.G A.",
"K K c B.G t O < - r % p q = 0 S D ..R Z H j s.B k.^ m % * < t - L w 9 @ B Z K ^ A Z x  .Z } 9.M 0 @ = r < = w u @ m D K ) c Z c ",
"H x c ^.8 B w t = < 5 a q # 9 S g x ^ g O.} c f !.H t t % * p * t 5 t < w d x o.g H o.H d #.Y.5 m p > - * t w r 3 t w g H c A B.",
"c H c ) g G w * = t u C 9 B 9 9 S.P.Z d 3.H H E } Z A C r 3 < g C u u m 0 } E.K 6 H } Z A / b g G n = % u u w w q t D ^.( M g | ",
"g Z ^ A Z u 9 1 - w p C < B 9 m h.A B ) H g z R c A w % 9 r r 0 w t u 0 $ *.y.g 3.1.6 C K H A C 5 < = 0 t u w t w - z k.k A B.x ",
"o.i.G.k.^ 8 % 5 u 9 = t < - 0 Y k ..G T.o.^ m.l.l.c.C = 9 w B # u $ r - Y ^ b Z k.V.^ $.l.C.V.l 0 i t B > t 0 > r B K H A H L._ ",
"x / | | ;.r.B 9 s u O 4 r > 0 G ,.^ Z k.x ^ A c.$.T H.Y * u u r * u @ 4 g H 9.z l.A 1.j #.M.A I.0.% 0 u r + w - = t Y } l 9.e.l "
};
