/* XPM */
static char *b64b0811a8244b4b8cd8c9984cd29e33PoqjdCGBXuF1yQqZ[] = {
/* columns rows colors chars-per-pixel */
"64 64 175 2 ",
"   c #36770E",
".  c #36790C",
"X  c #3D7D0D",
"o  c #367E10",
"O  c #3B7C13",
"+  c #427D0E",
"@  c #437E13",
"#  c #2E840B",
"$  c #3F8707",
"%  c #34830C",
"&  c #3B840D",
"*  c #348B0E",
"=  c #3E8C0E",
"-  c #378711",
";  c #3D8312",
":  c #3C8C12",
">  c #3E9213",
",  c #44840D",
"<  c #49840D",
"1  c #438B0D",
"2  c #4C8B0E",
"3  c #518D0E",
"4  c #44920E",
"5  c #4A930D",
"6  c #51900C",
"7  c #509B0F",
"8  c #448513",
"9  c #4A8614",
"0  c #448C13",
"q  c #4B8B14",
"w  c #45841A",
"e  c #4C861A",
"r  c #458D1A",
"t  c #4B8C1A",
"y  c #518713",
"u  c #528D14",
"i  c #52861B",
"p  c #528D1B",
"a  c #598F1B",
"s  c #449314",
"d  c #4B9415",
"f  c #449915",
"g  c #4C9B16",
"h  c #469319",
"j  c #4C941B",
"k  c #469B19",
"l  c #4D9A1B",
"z  c #539315",
"x  c #599616",
"c  c #539B15",
"v  c #599E16",
"b  c #53941B",
"n  c #5A941C",
"m  c #549B1C",
"M  c #5A9C1D",
"N  c #62971E",
"B  c #619C1E",
"V  c #4EA016",
"C  c #46A01C",
"Z  c #4DA11C",
"A  c #52A115",
"S  c #59A216",
"D  c #54A11C",
"F  c #5BA21D",
"G  c #5DAA1E",
"H  c #62A31D",
"J  c #62AB1E",
"K  c #4C8D20",
"L  c #508E21",
"P  c #4C9421",
"I  c #4E9A21",
"U  c #539522",
"Y  c #5A9623",
"T  c #549C22",
"R  c #5B9C23",
"E  c #539128",
"W  c #5A962B",
"Q  c #5C9C2A",
"!  c #5F9830",
"~  c #639424",
"^  c #639D24",
"/  c #699E26",
"(  c #629529",
")  c #649D2A",
"_  c #6B9E2D",
"`  c #639E32",
"'  c #6B9E31",
"]  c #709F30",
"[  c #4FA121",
"{  c #55A322",
"}  c #5CA223",
"|  c #54AA21",
" . c #5DA923",
".. c #5EA42A",
"X. c #5FA92C",
"o. c #5DB028",
"O. c #63A324",
"+. c #69A425",
"@. c #63AA24",
"#. c #6AAC25",
"$. c #63A228",
"%. c #65A128",
"&. c #64A32A",
"*. c #60A629",
"=. c #66A52A",
"-. c #64A12C",
";. c #67A32E",
":. c #69A32A",
">. c #6AA52A",
",. c #68A72B",
"<. c #6AA52C",
"1. c #65AA2A",
"2. c #60AE28",
"3. c #65AC28",
"4. c #66AD29",
"5. c #67AB2D",
"6. c #6BAB2B",
"7. c #6BAE2A",
"8. c #6DAD2B",
"9. c #70AC27",
"0. c #71A32E",
"q. c #74AF2A",
"w. c #71A92F",
"e. c #73AB2E",
"r. c #72AC2C",
"t. c #71AC2F",
"y. c #7AAD2D",
"u. c #66B123",
"i. c #6BB126",
"p. c #6CB227",
"a. c #6EB425",
"s. c #60B12B",
"d. c #6EB12B",
"f. c #71B027",
"g. c #72B32C",
"h. c #72B22D",
"j. c #63A531",
"k. c #6DA532",
"l. c #66AB31",
"z. c #6DAB32",
"x. c #6BAF35",
"c. c #6EAC36",
"v. c #6FAE36",
"b. c #70A031",
"n. c #72A331",
"m. c #73AB33",
"M. c #79AE37",
"N. c #74AB3A",
"B. c #7CAD39",
"V. c #7DAF3A",
"C. c #6EB432",
"Z. c #74B232",
"A. c #76B632",
"S. c #71B534",
"D. c #75B437",
"F. c #7BB033",
"G. c #73B238",
"H. c #7CB23A",
"J. c #7FB13C",
"K. c #77BB3B",
"L. c #7ABD3D",
"P. c #75B240",
"I. c #81B33C",
"U. c #85B33E",
"Y. c #81B93C",
"T. c #84B642",
"R. c #8AB147",
"E. c #85B943",
"W. c #82BE42",
"Q. c #86B945",
"!. c #88BB47",
"~. c #8FB84B",
"^. c #90B549",
"/. c #90B94C",
"(. c #95C052",
/* pixels */
"r R / :.M R H I.J.M.>.m } F ..A.p.*.T s : d s s s j b $.d U R M Q R -.M d j d : s s j 0 j s k f k | @. . .x.{ k f j R s k M F...",
"W U 8.O.c m v w.E.>.t.=.D m ..d.h.F l T m s j g j = = t m b x 2 b r 4 d B s 0 j b j R j j s I | } O.m T } ..f 4 d d m j R l F P ",
"n ) R M ^ ^ M 7.A.D.5.v.} D  .s.L.S.| T @.d.@.} l > > g d m 0 9 q 8 q M M b M m d c M R } j m m { O.F g D g g 7 M m d b b.Y r b ",
"/ V.b./ M F m D } R T l D g f C { @.D T 2.a.@.} l T s s d : h 8 q u q d b } H F m H F } @.F D I D 3.@.V F F +.+.+.d d :.U.R b O.",
"-.m j b s : r d h 0 b s f f l 2.v.v.} ..2.S.W.3.{ { k s d d s 8 i u z x R F O.H +.J i.h.i.S } m k j b j F q.H.w.^ &.b U R M O.R ",
"s b B s 0 j b b R j j h { { m R D D l g f C |  .{ g k k s s j 8 q = 8 b m m M #.8.Z.&.F D 5.O.R M @.z.@.m J <.=.R m m z z 5 j r ",
"q M R b M g d c F T } j m l j j m k f f {  .G G 2.X.Z f f } l q t 8 w K -./ O.8.} F F } m m m O.@.} t.O.6.F O.} M m s 0 e 9 q 8 ",
"q j j O.F F m H M F 3.D j n j j h j { T M m D ..*.m s s s m l K j 0 0 j -.<.m T { V l =.v O.l.P.2.} @.+.=.j m d m d z 9 8 , u 2 ",
"x z O.F H H #.G d.h.#.A z M R T m j l Z 6.O.A D g m 5 z m c d r O o 0 b m f j T j d g A g *.1.=.N.&.T R d % z z l s b X < 8 i q ",
"8 b R m F #.8.8.<.A F m d M } O.} m T { } @.F V F c } 8.d s d - % # : j h h m m h j j b j j W Z.<.Q F m j.} ) M 8.D D q p 9 t & ",
"w E <.^ +.6...F } } F O.#.J d.d.u.v F g k m d m +.y.T.O.M R t r * : j d m g h : j r T ) h Y F <.&...m 8 b &.{ M m j m z Y q t ; ",
"0 b <.=.m { { V m m F #.h.6.+.A } <.} b R 7.O.m F Z.>.O.O.} m l : 0 r } M d T t r j ' N.T Q X.T s j m.W Q M l Q b j * R ) K r 8 ",
"0 b m f b T j T <.M F.O.F } *.F l R m @.@.1.6.+.} 1.+.R M k m T > : g d l s s T T Y ~ / &.R T s k M m.T P M >.&.R +.H 0 t w O ; ",
": h h l T l r Q m.+.m &.F D ..M m =.&.C...+.6.w.T m j m M s O.m T k s d 0 j 0 m } 6.} d j 0 t d l l @.j W m Z.O.R &.d c % - % # ",
"j d m g s : 0 z m h j b l g m V m z.v.m.<.b R s : q c z s s R { Z k f g s h 0 b j T } r r r r 0 1 Q R Q _ U r M b -.b ^ b r * > ",
"L m M j j - h h : j R l 0 j b j j m &.m.-.} m $.T R R } @.c 2.{ l k f > l l T j s j j b &.) Y p Q m Y I.m.j R O.b.m.] O.m j : 0 ",
"l d l s > s j d D T : s P P Y R r R >.N.5.F 0 b Q  .Q M m j D X.l.D s k T m R Q l R t F k.N.^ N 0.^ R R F b O.O.Q b j m ..l > : ",
"s d 0 h s ; U m b j h t r U ) N.R R *.s h ) k.U ^ m l ^ b h l *.D 4 0 d m m m R b b =.m M p z 8 p p q z z z r d 0 M m s F l T h ",
"g s d s : h d d l s h T T Y ~ =.R ..l s d +.<.j U ^ -.O.n m F g m 5 v m g s j T Q ..s 0 j p 9 @ n ' t t 9 t , q z M R b @.{ Z f ",
"f s l l } s h 4 s 0 m R 1.1.M b s j r k m @.} h W O.t.M <.F c O.v <.8.m d d = j U U 0 u 8 , e 9 x 1 t 9 @ q u q q b m O. .{ l k ",
"s s } d T s f s d > d P m >.j 0 0 j 0 1 b R Y <.Q U M b Q R b #.y.T.O.O.) p t z F M d q 0 0 w X 2 , , + , i u z x b O.}  .5.X.l ",
"s d m l m f k s j j T s h j j Y &.b t Y j R <.T.b t R ^ V.0.^ M 8.O.*.M m M M O.d d z 8 % r 8 < 1 < < w b 8 q & b b } D } *.l 4 ",
"M m g s T g f k } d Q T I b j ^ !.( N ^ V.R R O.^ ^ M k.R b R d } 1.R R s c F M R q x Y q w ; 9 u < < a p 9 p O t Q +.g V g c 5 ",
"t.d d m g s s d T m b T m $.} b &.p b q n u q x 5 b j s d M 0 r m d m m d O.>.d <.M z b b w O , 9 8 b ) p U 8 q r R z.D D +.M 6.",
"B ^ ~ m g 5 x m g j T ) R } s d Y 9 X @ ( R 0 9 q q 8 0 M ^ j b b M z / ^ m O.6.+.+.r p t 8 8 8 .   0 8 K O o 0 j m k d m #.F.Y.",
"$.M m v m H 6.s s 0 0 j T j 1 u , & ~ z z t e 9 @ q 2 q b t ^ O.m.0._ ^ F m R F O.$.m D D g T h d b : s k > s h j l j O.m F m.O.",
"R R c t.V.F.+.M Y t b c +.b d 8 t ; w X 6 1 , < , e q b z R O.:.^ m Y d : s h l h j g k f f D u.G  .l...g f s } d ^ / M._ O.O.+.",
"m b d J m.5.O.O.R M m m d z 8 ; 8 t 8 1 1 < @ p t p 1 q 5 d j d s M d 0 j m 0 R j j s j { { F l m } -.l 4 s s m m O.-.R U m s 0 ",
"b m O.} >.O.m m s H F } q u p q 9 ; 8 u 3 , < e z q ; 8 9 b , q b B M d m d m M R } j j m Z 6.} V D g g 5 c m g d j = b m 0 r j ",
"g m R m R j m j F O.D D s m 5 z b O X q 8 8 n b.t t 8 8 @ < u q q b m O.O.m m F F @.D F I D  .3.V D F M O.t.d d 1 9 0 F R d b d ",
"d M M O...m T { @.2.F D F c R 6.m q 8 X . ; 0 t K O & + , i q z x b } +.F @.#.@.h.d.J F F l s M d m #.F.H.O.M Y 2 < q b j O.F m ",
"#.J 8.h.i.F F g l m d c @.y.T.+.B R p 8 b Q b Y d b , 9 p e 8 & z m O.c H f.Z.6.F A O.=.m m O.z.} m G m.1.Q } b i q x b R O.H } ",
"h.6.6.A } >.} m T 3.=.m F h.>.O.O.O.m M ^ k.>._ R s q 9 p q 9 O t Q O.^ w.O.F ..} m l R M @.@.+.6.+.} 1.O.m M r b & q z O.m F #.",
"} F *.F l R b @.@.@.6.+.O.*.6.R M g l R R d b h 0 0 h 0.p U 8 j j Q m.O.m &.D l -.M F *.l.5.$.7.O.t.j m j m b 1 q ; w P <.M m.6.",
"} D } M c O.&.G...+.6.6.} m j m M 0 b 8 0 d ^ M 0 j d 9 K 8 . ; q M f r m l g g A g m S.z.G.&.m R j - q c d s b t q r Q m.>.} ..",
"k g c c m v.v.z.m.m R s : 0 c z s 1 q 2 < d b m } v : % % % & * j h s j R j 0 j b j b m <.z.Q } m -.T Q R 1.} r O ; 0 z m h j T ",
"0 b t d j m Q F.j.} m $.T T R } 1.m q 9 z z T R H H m r h : * h h m D l : s P I Q j U R >.v.1.m 0 b .. .M m m r % - s j s h R l ",
"j P U Q r b >.N.l.F 0 j R 5.Q M R j L q 1 x M O.v H #.T T : s ; R m j m r t r Q k.*.) R { s j m.` Y R l F R j - * > j s D m > s ",
"r U ) N.T R 1.k h Q N.U ) m s &.b r & q % 8 j O.b Z.8.F T > > d d d s s j T R ) ~ =.R Q g s v m.R r R ^ m.M R M m = E m z j j t ",
"m Y ^ +.Q R T s d O.z.j U R -.6.z F v t 9 U ) <.6.} &.F m T I s d 4 h 0 m } 1.+.b b 0 j 8 l g @.T P Y 6.6.M <.m d h g d m s > R ",
"O.7.M b s j t d D  .} r W M w.M <.O.g ; : : m } h 0 T D g D g s g g s : j P m =.j 0 : b d 0 b R b b.R j M b ) b R s h d s 0 b R ",
"j =.b 0 0 r 0 1 j R R / ) U b R U ^ d b 0 j m > j O.k 1 d d g j k s j m T s h j j R k.t b R m R m.H.b b O.&.V._ ^ s f d d > 0 U ",
"s d j Y ^ U t Y j R :.T.R r R ^ M.0./ h - h f D } > f P T b m j l l R j Q j T t m :.J.^ N _ 0.Q Q O.R O.^ -.M b b s k s j j T j ",
"I U j O.T.) ~ ^ V.^ R ^ O.Q M k.Q b R d : m d b h : r t P ) -.Q m T m m m m m =.R M Q p t q n 9 u z 5 j j = m M 0 s f f } d Q m ",
"m Q ..b &.b b 9 n q q x 5 b j s d M s > d l m l l P U b Y ( O.U Q { s j T ) ..m h q Y 8 X e _ z q q t q 8 q M R d s > d T m b R ",
"R } d 0 Y 9 @ O Y / 9 9 9 d 8 0 m ^ b h s h 4 s 0 l T -.&.^ m b j r h m j U T 0 q 9 , O ~ x 1 e t 8 8 3 < q b d c 5 z m g d T $.",
"Y j = z , & ( u x q e 9 @ 2 3 q d j T T s s d h : j m } 6.q j - Q 0 d j m m O.d 2 8 t O ; < 2 , X , 9 i q x c M m F t.d s s 0 j ",
"O.m q q 9 ; w X 6 1 , , , i u z x R D g f l 4 h d b h s m b r b 8 j j m ) -.V.b 8 & 0 t q 1 1 y @ p 9 t & q x #.V.H.+.M Y t j c ",
"d d q ; ; t 9 1 1 < + i e i 1 8 x M l.[ C k f } m Q j P j b / Q.) n _ <.n Q w.Q ^ z 9 ; 8 u 3 , 9 p q t ; w j G 8.7.^ } } }  .m ",
"c q p b 8 8 & u z , < 9 z 9 8 ; K ..*.Z > > j R j R T T ) T M z.p b b B a p c d R R q O , 9 8 t / ~ j q z r &.O.8.m.} l 2.7.h.@.",
"2.c x Q t @ X 9 8 8 b V.q t q j Y R } d 1 z d l m U R T } m d Y 9 ; 9 ( z q q q q t 0 b 8 . . U R b +.O.m 7.A.Z...z...m F | C.S.",
" .{ j t q 8 8 X . 8 Q b ^ O.} 0 d m c m S +.d 1 4 j T T j 1 u t 8 ~ z b U e 9 8 q < q b d R ~ V.<.0.M M g m m R R l D g k Z g { ",
"@.l.{ g h b U 8 u k.V.' ^ m m m V F 9.m.F.H m b 0 j d } j q 8 0 o w < 5 2 , , , y q b b Q } -.b j h d = 0 0 b 0 r h j f k { @.@.",
"F O.f 1 s d l m ^ R b j j s : r b M #.D.>.^ =.Y b m m m m , & r w 8 $ 1 , 8 u e p 1 z x O.m s j ^ d 0 j b j R j b s l | ..O.m m ",
"g g d 7 O.d d d j 1 M M : r l j M O.} <.O.M D g M O.M q z t 9 8 ; q 3 2 < + e q q % ; j } b q x M m R m s d F } } m m l Z O.F f ",
"F +.O.6.6.d b h 8 q M R b M d d m F } m m m l } 8.z O.M z n Y t O X u 9 < N _ 9 r 8 t Q <.w.n q Y } O.F T O.+.O.3. .D l D @.@.Z ",
"m 9.Y.w.B ^ Y e q q b m +.F } m +.} @.@.A l { @.@.d b m.M 9 r q w 8 X & r r U E w & - d } l q x M O.H H @.@.#.d.i.S @.F j s M d ",
"M F z.O.O.m m F z x z +.F H O.#.J d.d.J F @.d h m z m H m R R Y p 9 , 8 O & 8 ; ; : s R j s 0 b m M m 6.8.Z.>.} D ..O.T M 1.Z.1.",
"6.} 2.} b T s O.d q b } b +.p.8.6.>.A } z.m m O.C.7.M D O.Y j Y ..} R j j d &.O.0.R.Q.+.D c t L -.<.+.>.} F D } m m R B @.} t.M ",
"=.h c z m d m >.t e W <.O.6.O.F F } F k R b #.@.+.+.6.} } -.U -.M j $.d 0 d G.Z.Q.~.^.N.O.+.M b } 8.} ..{ g l *.v } j.P.l.O.} O.",
"l % d z m d b &.m : T <.M j } D g } F v >.l.P.O.O.O.+.U m m j U M <.+.R +.H v m F (.V.H.>.m R F } h.d.5.} s f g l T 1.>.m.) } R ",
"-...-.R +.F g F j d b k h b T d g g g m 1.z.>.k.R $.l : 8 m h ! } 8.} $.R d c l S +.!.8.w.>.F l O.p.h. .m T T s s b U m.z.$.F d ",
"t Q { M m b l } J.j f s m T j r m b j j b Q Y.j...g Q ..Q Q -.Y t d M Y / b +.^ m 3.Z.D.1.G...m  .o.K.D. .{ g s l s m $...{ M t ",
"R R l $.T d & 3./.k.} @.d h m ..T T I 0 l O.-...F j t Y *./ U.^ p O.O.V.b./ M F m F F R T l D g f C C  . .l k f f s T T s j M.W "
};
