/* XPM */
static char *a438cd197938495785f156d76aedd442Mq3kh2PtkG0rZNwK[] = {
/* columns rows colors chars-per-pixel */
"64 64 150 2 ",
"   c #5B5A57",
".  c #5E5D5A",
"X  c #605F5C",
"o  c #62625F",
"O  c #656562",
"+  c #686764",
"@  c #6A6966",
"#  c #6D6D6A",
"$  c #706F6C",
"%  c #6F706C",
"&  c #71716E",
"*  c #757572",
"=  c #787775",
"-  c #797976",
";  c #7D7C7A",
":  c #807F7C",
">  c #82827E",
",  c #858582",
"<  c #888783",
"1  c #878883",
"2  c #8A8A85",
"3  c #8D8D89",
"4  c #918F8A",
"5  c #93928D",
"6  c #99968F",
"7  c #969591",
"8  c #989792",
"9  c #9B9A95",
"0  c #9E9D99",
"q  c #A09F9A",
"w  c #A3A29D",
"e  c #A8A69F",
"r  c #A6A5A1",
"t  c #A8A7A2",
"y  c #ABAAA5",
"u  c #AEAEA9",
"i  c #B0AEA7",
"p  c #B0AFAA",
"a  c #AFB0AE",
"s  c #B3B2AB",
"d  c #B2B0AA",
"f  c #B4B2AA",
"g  c #B2B2AC",
"h  c #B5B3AD",
"j  c #B4B2AD",
"k  c #B5B3AE",
"l  c #B6B4AD",
"z  c #B5B5AF",
"x  c #B6B4AE",
"c  c #B6B5AF",
"v  c #B3B2AD",
"b  c #B8B6AE",
"n  c #B9B6AF",
"m  c #B7B5B0",
"M  c #B7B6B0",
"N  c #B6B5B1",
"B  c #B8B5B0",
"V  c #B9B7B0",
"C  c #B8B7B2",
"Z  c #B9B8B2",
"A  c #BBB9B2",
"S  c #BAB9B3",
"D  c #BAB8B3",
"F  c #BCBAB3",
"G  c #BDBBB3",
"H  c #BBBAB4",
"J  c #BCBAB4",
"K  c #BCBBB4",
"L  c #BDBBB4",
"P  c #BCBAB5",
"I  c #BCBBB5",
"U  c #BDBCB5",
"Y  c #BFBCB5",
"T  c #BDBCB6",
"R  c #BFBDB6",
"E  c #BEBDB7",
"W  c #BFBDB7",
"Q  c #BEBEB7",
"!  c #BFBEB7",
"~  c #BBBAB5",
"^  c #BEBDB9",
"/  c #BFBEB9",
"(  c #BDBDBA",
")  c #C1BFB6",
"_  c #C1BEB7",
"`  c #C0BFB7",
"'  c #C1BFB7",
"]  c #C0BEB7",
"[  c #C0BFB8",
"{  c #C1BFB8",
"}  c #C0BFB9",
"|  c #C2BFB8",
" . c #C0BEBA",
".. c #C0BFBA",
"X. c #C0BFBA",
"o. c #C2C0B7",
"O. c #C2C0B7",
"+. c #C0C0BA",
"@. c #C1C0BB",
"#. c #C2C0BA",
"$. c #C2C1BA",
"%. c #C2C1BB",
"&. c #C3C3BB",
"*. c #C5C2BA",
"=. c #C6C3BB",
"-. c #C1C1BC",
";. c #C3C1BC",
":. c #C3C2BD",
">. c #C4C3BD",
",. c #C4C3BE",
"<. c #C5C4BE",
"1. c #C4C4BF",
"2. c #C6C4BF",
"3. c #C6C5BF",
"4. c #C3C2BD",
"5. c #C8C6BF",
"6. c #C8C6BE",
"7. c #CBC8BF",
"8. c #C6C5C0",
"9. c #C6C6C1",
"0. c #C7C7C1",
"q. c #C6C5C1",
"w. c #C8C6C1",
"e. c #C8C7C2",
"r. c #C9C7C2",
"t. c #C8C7C1",
"y. c #C8C8C2",
"u. c #C9C9C3",
"i. c #CAC8C2",
"p. c #CBCAC3",
"a. c #CBCAC5",
"s. c #CCCBC6",
"d. c #CCCCC6",
"f. c #CDCCC6",
"g. c #CDCCC7",
"h. c #CECCC6",
"j. c #CBCAC4",
"k. c #CECEC8",
"l. c #CECEC9",
"z. c #D0CFCA",
"x. c #D1D0CA",
"c. c #D2D2CB",
"v. c #D2D1CC",
"b. c #D5D4D1",
"n. c #D8D7D4",
"m. c #DAD9D6",
"M. c #DDDCDA",
"N. c #E0DFDD",
"B. c #E1E1DE",
"V. c #E3E2E1",
/* pixels */
"O o O O + # @ @ O O O O @ O .   O O o O @ O @ + + O @ o O # o   O O @ + O @ @ + O O @ @ O O O o O o O @ O + O O o O O o X O . . ",
"s e s j Z ! H c y c ( ! ..` o.G C p ..c j m Z Z j ! -.1...5.*.b c y I c c I I C p j @.@.! Z ` s y y u p I ! c j p I 0.@.G I ` s ",
"8 q y r w t y t y e e y e r e y y w t w 6 w e t y w 9 w t w w y w 8 q w q t t y e 9 w 9 9 9 e w 9 8 8 6 q w y y t 9 w w 9 0 q w ",
"r w t u y w p e t w q y q w r 0 e w y u t w y w w t q w w w r w y w w y p t g u w w w r w 0 y y t e y t y t u w q w 9 y y e y w ",
"! ! i.i.w.a.0.>.0.@...( ..Z Z >.*.g.k.g.w.0.0.! @.@.1.-...m ..>.` i.x.x.s.0.g.i.g.@.1.w.0.! ..0.! 1.i.w.-.@.0.! ..! ..-.( m ..1.",
"* ; ; = - - ; ; , ; = > ; = * = = = - - ; - ; ; > ; - ; = * * - = ; ; ; - - = > > - = - - * = = * = ; = - - - , , = ; - ; = * - ",
"9 9 w 8 7 9 9 8 7 9 0 0 9 5 5 8 8 0 0 0 9 0 9 8 9 0 0 0 7 7 9 9 8 0 9 0 9 9 9 w 0 0 q 0 7 8 5 5 9 0 0 0 9 9 9 9 q 0 0 0 7 7 0 0 ",
"t t y y g s m m g H p t c c y t t r t w p g m g j I y t p j w 0 e w 0 r s t u y g ( s y C g y q q t s u m c C p j Z y s m u u y ",
"r t e 9 9 7 w 0 y e q q t e w 9 0 t 9 5 2 4 9 9 t w q w t e 7 7 9 w 0 5 3 2 9 7 r w 9 0 y t 8 8 7 w q 9 7 7 r w y q w w u s 9 7 ",
"k.z.v.x.a.k.i.i.1.0.g.a.g.k.g.x.a.a.k.x.k.0.g.k.0.-.a.i.i.0.i.g.g.z.k.a.1.i.i.-.i.i.a.a.i.x.b.b.x.s.a.k.1.0.x.0.a.i.g.g.v.M.b.k.",
"@ # * & * ; ; ; > = * ; > , , , # @ * * & = , > > * ; ; ; , > 3 # O @ $ & & = * & * & = = * ; > @ O & % # = : = ; = * = > 2 , 2 ",
"> 3 3 2 , 2 7 2 , , ; 2 : > 3 ; , 3 3 3 3 5 5 5 < 2 , > , , 2 2 3 5 5 3 2 5 7 2 > , = 2 ; * , > , 5 5 3 < 3 3 5 , 2 ; < ; ; , , ",
"w 9 8 4 9 r r y t r g C g ( m j w 9 5 5 9 w t y t g s y u ( H y w q 5 2 4 w y g g y y s y I C p w w 9 8 w e y g g g y H m -.H u ",
"w r e 0 0 q w q y c m e t u t w e y e 0 q w w 9 w c u 7 r y y w 0 r 9 0 e w 8 q y s m t w t w e w y t w r u t w y c g w t y y y ",
"H H g H -.j c -.H ( @.a.@.I -.( -.@...( 0.( ..q.( -.H -.Z ! >.( 1.a.0.>.0.H Z q.C -.-.a.( m ! H C ! H -.1.c H H m H ( -.H @...( ",
"q.-./ ( / D -.X.( D H N m m ( q.q.0.X.( D m ( ( N m N N g N N ( q.q.0.q.D y ( H u H ( D H H N / -.-.( q.-.N ( H H D N m m ( ( -.",
"# @ & # @ & $ # # O # # # & O O & @ & & # & # & $ # # # # & O O # @ @ # # # @ @ @ # @ O O @ X O @ O @ # @ # # # @ @ # # # # O @ ",
"c p C Z I c Z p e p -.@.! @.@.b s y ! I ( Z I m s Z ( w.` ` ! G s t H c ! ! H j p G -...@.G ! Z y t H Z ! ! H Z s c -...I @.` G ",
"r w e u e t t t w e t t t w u u r 9 r y y t m s t u p y t r u c t w y y e y y y e w t w y w y p 0 w t y e w w w r w w w 0 q w e ",
"y w t y u y y w e t w e r e g w t r w r y r g e e y y g y y g y y y t p j y g r e r t y y t g y p t y c Z m m r y u t y r e y y ",
"5.1.k.g.s.i.-.@.g.1.>.-.>.@...0.1.i.k.z.k.a.z.1.w.i.s.a.0.i.>.1.5.w.0.0.s.0.a.@.! I @.H m ....>.*.1.k.x.s.0.a.1.v.g.0.-.1.I I 0.",
"= ; , ; ; = ; , , ; > ; - - = - = = > ; ; ; ; 1 2 ; ; ; > ; = ; ; ; ; ; - - = ; 2 ; ; ; - = * = * = ; ; ; = ; , 1 - ; = = = * * ",
"8 w r 9 0 7 e r 0 9 0 e 9 6 5 7 q 9 8 7 9 9 3 2 4 2 3 7 , > > > > 3 3 3 2 4 , 3 7 5 9 w 7 8 7 3 3 8 5 3 7 5 0 w 0 r 0 w 7 9 0 0 ",
"w e w r y g c j y j y e g p u t w e t y u u C u y p t w t y r w q w r r g g s r 9 t w e u u w w 9 7 0 w u e y y p m t e C s w w ",
"9 0 8 2 , 3 w 9 r 0 9 w u r 9 0 9 r e 8 6 7 u w u r t t j y w 8 9 w w 8 9 0 y r u w 9 w u y 9 9 q 0 8 7 0 8 w 6 0 q 0 7 w w 8 7 ",
"v.v.m.m.g.z.n.n.x.v.v.g.0.i.x.v.v.x.v.v.a.x.v.a.k.1.i.i.g.k.g.g.w.z.k.k.g.w.x.i.0.0.-.0.0.g.x.k.g.k.0.a.k.a.k.0.@.@.k.i.( 0.x.k.",
"* * ; ; = ; 3 3 > > ; , , 2 , , @ O & & * - , = > ; = ; 1 , , 3 & # = ; ; - 2 , , , ; ; ; 1 2 7 = * ; ; , 2 3 2 2 ; ; - > 3 3 2 ",
"> 5 7 3 , , 1 , < , = > , ; < ; ; > , > ; ; , 1 = ; = = = * > > > < , 3 > , 3 2 ; , ; > & # > > , , 5 5 < 5 7 9 5 8 2 > > 3 3 > ",
"5 5 4 7 5 8 r u y r w r t ! ..g q 9 3 2 5 w r y w t w y y H C y 9 4 2 2 9 y p g y p m H c ( 0.I t 5 5 8 6 e m j g g k H g w.C y ",
"w t 8 0 w 0 8 y u y y 9 w t w y e s w w w y y u c ! m p j Z s r w t 8 9 u r e r y y y w r y t r 0 e 9 0 9 9 9 q y s p r y y r e ",
"0.0.-.0.s.1.@.a...-.-.-.Z g H m H ( ( H ( m H k.-.@.m ( ( ( I -.@.H c m N c c m H H m H g s ! j m g m X.( H H -.( a.0.a.@.! ..H ",
"q.a.a.q.q...X.( q.N ( ( N g u m N p u N u r y y u u N u y u N H / ( H ( u r ( H m / m u g a H 0.-./ ( / ( D H m g N N H H H H X.",
"# @ @ @ # * @ & # @ # # @ # @ @ & & * * * * = & # @ $ # & & # @ & & # # # * & & # # @ @ # # @ O # # & & & # @ * # O # # # # O @ ",
"@.c -.Z @.1.! Z C @.w.w.*.*.7.! G p m Z C Z @.j s ! 0.@...! 1.G s s Z y g I Z p t y m 1.! I 5.@.c u ( j I @.( ! >.*.g.g.>.i.7.1.",
"j y y u w w y e t w w 9 w 0 t p r 9 w w 9 t q w e e e e w 0 w w w q s y w q u s s p e y s g m ! ! m j u y j s j I u s p y w s m ",
"j y u y g y g w 9 w q 0 q 8 0 0 0 9 t w w w y q 9 r 0 w e w y w w w y g y e j p s y t s s j ! j C y c ..Z y Z y p s t s s w y y ",
"! 1.a.k.g.w.s.H ( ! 0.a.>.H ! -...1.g.i.>.i.a.1.1.g.i.0.-...@.>.5.1.0.a.>.0.i.1.1.-.w.0...( ! -.` ! ( >.0.-.0.! w.@.( >.>.m Z 1.",
"= = = - - - = > > * = - = * & = * * - = - - : , > = = ; - - * = * = ; = = = = ; , = - ; - = - = * = - = = = = , , = ; ; - = = = ",
"9 0 w w w r w w w 9 9 0 9 5 9 9 9 9 e t w 9 0 r 0 0 0 w 0 8 9 9 9 r y w w w 0 r r w w r 0 0 w w 9 w w 9 0 0 9 r w w t r w q w 0 ",
"w t t y g g m g y m t w y y t 0 q t t s m g m u g Z p y p p u w 8 9 r u g c g u t g r 9 u g y t q q t y m m y s p j y y g t w w ",
"w y t 9 7 8 r 9 y w q w t r 9 9 9 r w 9 7 5 w w r w w e p e 9 9 0 t w 7 5 5 w e r e q 0 r r 8 8 9 e 9 5 0 9 w 0 u 9 8 w u t 9 0 ",
"g.a.k.k.a.g.z.a.0.1.a.a.a.s.0.x.s.k.w.0.1.-.i.i.@.-.w.0.a.a.x.k.k.k.g.a.a.-.a.0.i.i.i.0.i.a.v.k.s.k.k.g.s.i.g.-.0.-.-.1.0.a.a.a.",
"# # * = & = ; > > = = ; - , 2 < @ # * * * = : ; = ; = ; , > 2 3 & @ * = = > > > , ; ; , , , 2 2 # # * * = ; 2 , , ; & , 1 3 2 2 ",
", 2 3 3 , , , > > , - , ; ; 3 > 2 3 5 6 2 2 , 2 , > = > ; : 2 > > > 3 < ; 1 3 3 2 , ; , > ; 2 ; ; , , 1 , 3 3 5 2 2 = , ; = 2 , ",
"w 8 < 4 8 w y u t w r g m @.! s w w 8 5 9 r t y m p u g y ( ..s 0 0 8 6 7 w y m y y t y u ..Z u 8 9 6 8 9 t p Z c p m j u H H g ",
"9 w q 7 7 w 0 9 t y y 9 w u e w 0 w q w w t 0 q y p u w y w w r 0 w 9 w t t 0 q t u s r u y 9 0 w w 9 8 w p w w y s g w e t 9 q ",
"Z g g H -.g p ( H H ( -.C C @.@...@.m ( ( m I 1.H -.( 0.@.( ( m m H m ( 0...H -.H -...0.1.@...Z H H H I -.j Z ..m H m m g m j u ",
"0.q.N ( H j ( ( m ( / H ( ( -.q.g.a.-.q.q.H X./ -.( ( ( ( / / q.0.q.( q.X.m ( ( / / -./ X.( X.q.q.q.0.q.0.( -.( ( / / ( ( ( / 0.",
"* * > ; ; > = = * # # * @ $ + @ # # & # @ # @ # @ + # @ # * + # & & = = * & * & & # * # # * + O * & # # & * = = * $ * * * * & # ",
"c y H Z I Z c g y s H ! b j c y e w y y t e p t e t Z c y C ! b j e c c m c s t y p H I Z C c y i y g j c I ( I p s ( ..C c o.s ",
"w 9 w w w e y e t 0 w w y y u j t w w r q e w e w w t p w w y y y q 0 0 9 e y e e r w e w q r e 0 q e w w e r e t q e e w q w 0 ",
"t w y y y y j t e y w t t e u t y r y e r w t 6 9 w 0 t e w y y e w 7 9 e t s w q e q t q 9 0 7 9 8 w w y w u w e w e y w e r r ",
">.w.0.1.w.g.g.i.w.>.@.-.-.@.-.....1.a.a.w.-.i.Z -.>.>.@.m C ! @.I >.a.w.0.i.s.-.-.@.@.0.-.! ! I *.! @.>.0.-.0.! @.! Z 0...C I >.",
"= ; , - ; ; ; , , - = ; ; - = ; * = ; = ; - ; , ; ; ; ; - = * = * = ; ; ; ; ; , , - ; ; ; ; ; ; ; ; , ; - ; > , , = - ; ; ; = - ",
"5 9 w q 9 0 0 9 0 0 q 0 5 5 6 5 8 9 7 9 7 9 7 w 0 w r y 7 8 9 9 8 t q 9 w q 0 9 7 9 9 w 9 8 9 9 8 9 w w 9 9 0 0 0 9 0 r 8 6 7 9 ",
"w w t y p g c g y m y t g p y 0 w w w t g m m u u Z p u g u y t w s p u C H H m p H u y C g s p w e y u j C H g t s y u ! g t t ",
"9 0 0 5 7 7 e 0 e 0 q 9 w 0 5 7 5 9 9 2 3 6 e 0 y 9 9 8 y r 9 0 0 w w 9 7 9 u w t w q w u r 9 r t w 9 7 7 8 u w t 0 9 8 0 w 7 5 ",
"i.0.z.k.0.a.a.-.i.i.1.i.g.i.i.g.g.a.s.a.1.1.@.@.0.0.g.( @.i.w.g.z.s.k.k.g.i.a.i.i.>.i.1.-.i.v.x.x.v.k.g.i.a.x.0.0.0.s.s.0.i.g.a.",
"& & = = = ; < > > ; ; , , 1 2 3 & # = = * - , = ; = = ; - , 2 , & # = ; = > > ; , ; = ; > , 1 3 * & ; ; = ; , ; ; ; = > , 2 2 2 ",
"3 3 2 3 > 3 8 7 2 , ; 5 , ; , = > 3 3 2 > 2 7 5 2 , ; , = * , > 2 3 3 5 2 3 5 3 3 2 ; 2 > : > < , 3 5 2 > 2 2 2 , , > < > > 5 < ",
"9 8 5 4 5 9 e u s m g g c i...s 9 9 6 7 9 y g g c c c ! m H ..H w 0 5 4 8 t p g m u y j C 1.H u w 8 5 8 9 w t y t y p g m 0.-.m ",
"0 y w 7 9 t e r s c m y y Z s y w w 9 q w p y r g j g r p s y y y j w 9 9 t w e u g m t u s e 9 0 t 9 9 w r e q y u g w u Z g y ",
"g g u H H c j H H H ( -.H c g C m m g u H H m ( m H C -.c Z ( H ( ( Z ( C u g ( H ( m m H g I I c H m u m g j C m H g ( u u H m ",
"M.B.M.M.N.b.M.m.n.b.m.m.m.b.b.M.V.B.m.M.m.z.m.M.m.b.v.k.b.b.m.M.B.B.B.B.M.z.M.M.m.M.m.b.b.b.m.V.V.B.M.V.M.b.M.M.n.n.M.b.b.b.b.m."
};
